<svg width="224" height="97" viewBox="0 0 224 97" fill="none" xmlns="http://www.w3.org/2000/svg">
<g clip-path="url(#clip0_27_67)">
<path d="M32.2733 54.369L23.1592 41.08L30.2972 39.258L37.939 50.594C46.289 45.633 57.2952 41.543 71.7322 39.866C70.4384 35.311 68.1332 31.1068 64.9886 27.5666C61.8439 24.0264 57.9407 21.2416 53.5701 19.4196C49.1995 17.5977 44.474 16.7856 39.7459 17.0439C35.0178 17.3022 30.4091 18.6243 26.263 20.9115C22.1169 23.1988 18.5404 26.3922 15.8001 30.2539C13.0598 34.1156 11.2265 38.546 10.4366 43.2148C9.64667 47.8836 9.92046 52.6705 11.2379 57.2187C12.5552 61.7669 14.8823 65.9591 18.0452 69.483C21.8416 63.6313 26.6613 58.5115 32.2733 54.369ZM44.303 28.048C45.6854 28.0482 47.0368 28.4583 48.1861 29.2264C49.3354 29.9946 50.2314 31.0863 50.7603 32.3635C51.2893 33.6407 51.4275 35.0461 51.1578 36.4019C50.888 37.7577 50.2224 39.0032 49.2449 39.9807C48.2674 40.9582 47.0219 41.6239 45.6661 41.8936C44.3102 42.1634 42.905 42.025 41.6277 41.4961C40.3505 40.9672 39.2587 40.0714 38.4905 38.922C37.7224 37.7727 37.3123 36.4214 37.3121 35.039C37.3118 34.1208 37.4926 33.2115 37.8438 32.3632C38.195 31.5148 38.71 30.744 39.3592 30.0947C40.0084 29.4454 40.7792 28.9303 41.6275 28.579C42.4758 28.2276 43.3848 28.0469 44.303 28.047V28.048Z" fill="url(#paint0_linear_27_67)"/>
<path d="M36.196 60.0989C31.0399 63.9166 26.749 68.7813 23.605 74.3739C27.2896 76.9139 31.4735 78.6394 35.8774 79.4354C40.2814 80.2313 44.8044 80.0794 49.145 78.9899L36.196 60.0989Z" fill="url(#paint1_linear_27_67)"/>
<path d="M41.847 56.382L55.5021 76.631C60.7404 74.0221 65.1473 70.0039 68.2274 65.0281C71.3076 60.0523 72.9389 54.316 72.9381 48.464C72.9381 47.846 72.9162 47.233 72.8812 46.626C64.5362 47.709 52.542 50.214 41.847 56.382Z" fill="url(#paint2_linear_27_67)"/>
</g>
<path d="M107.844 62.6406C107.844 63.2344 107.688 63.8125 107.375 64.375C107.062 64.9062 106.328 65.5312 105.172 66.25C104.016 66.9688 102.734 67.6562 101.328 68.3125C99.9219 68.9375 98.5625 69.4844 97.25 69.9531C95.9375 70.3906 94.9688 70.6094 94.3438 70.6094C93.9062 70.6094 93.3906 70.5 92.7969 70.2812C92.2031 70.0938 91.6094 69.8438 91.0156 69.5312C90.4219 69.2188 89.875 68.8594 89.375 68.4531C88.9062 68.0469 88.5625 67.6562 88.3438 67.2812C88.2188 67.0625 88.0938 66.625 87.9688 65.9688C87.875 65.3125 87.7812 64.5469 87.6875 63.6719C87.625 62.7969 87.5625 61.875 87.5 60.9062C87.4375 59.9062 87.375 58.9688 87.3125 58.0938C87.2812 57.1875 87.25 56.3906 87.2188 55.7031C87.2188 55.0156 87.2188 54.5156 87.2188 54.2031C87.2188 53.0469 87.25 51.7188 87.3125 50.2188C87.4062 48.7188 87.5625 47.2188 87.7812 45.7188C88 44.1875 88.3125 42.7344 88.7188 41.3594C89.1562 39.9531 89.7344 38.7656 90.4531 37.7969C90.6719 37.5156 91.1094 37.2188 91.7656 36.9062C92.4219 36.5938 93.1875 36.2969 94.0625 36.0156C94.9688 35.7344 95.9375 35.4688 96.9688 35.2188C98 34.9688 98.9844 34.7656 99.9219 34.6094C100.891 34.4219 101.766 34.2812 102.547 34.1875C103.328 34.0625 103.922 34 104.328 34C104.797 34 105.234 34.1094 105.641 34.3281C106.078 34.5156 106.438 34.7812 106.719 35.125C107.031 35.4688 107.266 35.8594 107.422 36.2969C107.609 36.7031 107.703 37.1406 107.703 37.6094C107.703 38.0156 107.641 38.3594 107.516 38.6406C107.422 38.9219 107.266 39.2344 107.047 39.5781C106.734 39.9844 106.078 40.4688 105.078 41.0312C104.078 41.5938 102.984 42.1562 101.797 42.7188C100.641 43.25 99.5156 43.7344 98.4219 44.1719C97.3594 44.6094 96.6094 44.9219 96.1719 45.1094C96.0469 45.8281 95.9062 46.5625 95.75 47.3125C95.625 48.0312 95.5312 48.7656 95.4688 49.5156C96.4375 49.0156 97.5312 48.5469 98.75 48.1094C99.9688 47.6719 101.125 47.4531 102.219 47.4531C104.438 47.4531 105.547 48.5469 105.547 50.7344C105.547 51.2656 105.438 51.7344 105.219 52.1406C105.031 52.5469 104.766 52.9062 104.422 53.2188C104.109 53.5312 103.734 53.8125 103.297 54.0625C102.891 54.2812 102.484 54.5 102.078 54.7188C101.078 55.25 100.031 55.7188 98.9375 56.125C97.8438 56.5 96.75 56.875 95.6562 57.25C95.5938 57.5 95.5312 57.7812 95.4688 58.0938C95.4062 58.375 95.375 58.6562 95.375 58.9375C95.375 59.375 95.4062 59.8125 95.4688 60.25C95.5312 60.6875 95.5938 61.125 95.6562 61.5625C96.0312 61.4375 96.625 61.2344 97.4375 60.9531C98.2812 60.6719 99.1562 60.3906 100.062 60.1094C100.969 59.8281 101.844 59.5938 102.688 59.4062C103.531 59.1875 104.156 59.0781 104.562 59.0781C105.031 59.0781 105.469 59.1875 105.875 59.4062C106.281 59.5938 106.625 59.8594 106.906 60.2031C107.188 60.5156 107.406 60.8906 107.562 61.3281C107.75 61.7656 107.844 62.2031 107.844 62.6406ZM129.734 45.8125C129.734 46.3125 129.641 46.8438 129.453 47.4062C129.266 47.9375 129.031 48.4844 128.75 49.0469C128.469 49.6094 128.172 50.1562 127.859 50.6875C127.547 51.1875 127.266 51.6562 127.016 52.0938C126.391 53.0938 125.766 54.1094 125.141 55.1406C124.547 56.1719 123.938 57.1875 123.312 58.1875C123.594 58.625 123.984 59.2344 124.484 60.0156C124.984 60.7969 125.469 61.625 125.938 62.5C126.438 63.3438 126.859 64.1875 127.203 65.0312C127.547 65.875 127.719 66.5938 127.719 67.1875C127.719 67.75 127.5 68.2969 127.062 68.8281C126.625 69.3594 126.094 69.625 125.469 69.625C124.812 69.625 124.141 69.3906 123.453 68.9219C122.797 68.4531 122.141 67.9062 121.484 67.2812C120.859 66.625 120.281 65.9531 119.75 65.2656C119.219 64.5469 118.766 63.9531 118.391 63.4844C117.984 63.9219 117.453 64.5156 116.797 65.2656C116.172 66.0156 115.484 66.75 114.734 67.4688C114.016 68.1875 113.297 68.8125 112.578 69.3438C111.859 69.8438 111.219 70.0938 110.656 70.0938C110 70.0938 109.484 69.8594 109.109 69.3906C108.734 68.9219 108.547 68.375 108.547 67.75C108.547 67.125 108.75 66.3281 109.156 65.3594C109.594 64.3906 110.094 63.3906 110.656 62.3594C111.25 61.3281 111.828 60.3438 112.391 59.4062C112.984 58.4688 113.438 57.7344 113.75 57.2031C113.438 56.6406 113.047 55.9062 112.578 55C112.109 54.0625 111.656 53.0938 111.219 52.0938C110.812 51.0625 110.453 50.0625 110.141 49.0938C109.859 48.0938 109.719 47.2656 109.719 46.6094C109.719 45.8906 109.938 45.3125 110.375 44.875C110.812 44.4375 111.391 44.2188 112.109 44.2188C112.891 44.2188 113.625 44.5312 114.312 45.1562C115 45.75 115.641 46.4844 116.234 47.3594C116.828 48.2031 117.344 49.0938 117.781 50.0312C118.25 50.9375 118.625 51.6875 118.906 52.2812C119.281 51.7188 119.797 50.9531 120.453 49.9844C121.141 49.0156 121.906 48.0625 122.75 47.125C123.594 46.1875 124.469 45.375 125.375 44.6875C126.281 44 127.141 43.6562 127.953 43.6562C128.484 43.6562 128.906 43.8906 129.219 44.3594C129.562 44.7969 129.734 45.2812 129.734 45.8125ZM142.062 71.6875C139.844 71.6875 138.109 71.3906 136.859 70.7969C135.641 70.2344 134.719 69.4219 134.094 68.3594C133.5 67.2969 133.141 66.0156 133.016 64.5156C132.891 63.0156 132.828 61.3438 132.828 59.5C132.828 58.0312 132.875 56.5625 132.969 55.0938C133.062 53.5938 133.203 52 133.391 50.3125C132.953 50.3125 132.609 50.3281 132.359 50.3594C132.109 50.3594 131.906 50.3594 131.75 50.3594C130.75 50.3594 129.891 50.1406 129.172 49.7031C128.422 49.2656 128.047 48.5938 128.047 47.6875C128.047 47.125 128.266 46.625 128.703 46.1875C129.109 45.75 129.641 45.375 130.297 45.0625C130.953 44.75 131.656 44.5 132.406 44.3125C133.188 44.125 133.922 44 134.609 43.9375C134.609 43.0625 134.672 42.0938 134.797 41.0312C134.922 39.9688 135.141 38.9844 135.453 38.0781C135.797 37.1406 136.25 36.3594 136.812 35.7344C137.375 35.1094 138.094 34.7969 138.969 34.7969C139.469 34.7969 139.906 34.9531 140.281 35.2656C140.688 35.5469 141.016 35.9219 141.266 36.3906C141.516 36.8281 141.703 37.3281 141.828 37.8906C141.953 38.4531 142.016 39 142.016 39.5312C142.016 40.1562 141.969 40.7969 141.875 41.4531C141.781 42.1094 141.609 42.9219 141.359 43.8906C141.891 43.8281 142.25 43.7969 142.438 43.7969C142.625 43.7656 142.797 43.75 142.953 43.75C143.484 43.75 144.031 43.7969 144.594 43.8906C145.188 43.9844 145.719 44.1406 146.188 44.3594C146.688 44.5781 147.094 44.875 147.406 45.25C147.719 45.5938 147.875 46.0156 147.875 46.5156C147.875 47.0781 147.641 47.5781 147.172 48.0156C146.734 48.4531 146.172 48.8281 145.484 49.1406C144.797 49.4531 144.062 49.7031 143.281 49.8906C142.5 50.0469 141.766 50.1562 141.078 50.2188C140.891 51.5 140.75 52.6875 140.656 53.7812C140.594 54.8438 140.516 55.9219 140.422 57.0156C140.359 57.5469 140.297 58.0938 140.234 58.6562C140.203 59.1875 140.188 59.7344 140.188 60.2969C140.188 60.7031 140.203 61.1875 140.234 61.75C140.266 62.2812 140.375 62.7969 140.562 63.2969C140.75 63.7969 141.047 64.2344 141.453 64.6094C141.859 64.9531 142.422 65.125 143.141 65.125C143.578 65.125 144.031 65.0938 144.5 65.0312C144.969 64.9375 145.438 64.8906 145.906 64.8906C146.719 64.8906 147.297 65.1719 147.641 65.7344C148.016 66.2969 148.203 67.0156 148.203 67.8906C148.203 68.5469 148 69.125 147.594 69.625C147.219 70.0938 146.734 70.4688 146.141 70.75C145.547 71.0625 144.875 71.2969 144.125 71.4531C143.406 71.6094 142.719 71.6875 142.062 71.6875ZM156.875 37.2812C156.875 37.7188 156.75 38.1094 156.5 38.4531C156.281 38.7969 155.984 39.1094 155.609 39.3906C155.234 39.6406 154.828 39.8438 154.391 40C153.953 40.125 153.547 40.1875 153.172 40.1875C152.547 40.1875 152 40.0312 151.531 39.7188C151.062 39.4062 150.828 38.9219 150.828 38.2656C150.828 37.7969 150.938 37.3906 151.156 37.0469C151.406 36.6719 151.703 36.375 152.047 36.1562C152.391 35.9062 152.781 35.7188 153.219 35.5938C153.656 35.4688 154.078 35.4062 154.484 35.4062C155.078 35.4062 155.625 35.5469 156.125 35.8281C156.625 36.1094 156.875 36.5938 156.875 37.2812ZM157.25 53.2188C157.25 53.6562 157.25 54.125 157.25 54.625C157.25 55.0938 157.234 55.5469 157.203 55.9844C157.172 56.5156 157.156 57.2344 157.156 58.1406C157.156 59.0156 157.125 59.9688 157.062 61C157 62.0312 156.891 63.0781 156.734 64.1406C156.609 65.2031 156.391 66.1719 156.078 67.0469C155.766 67.9219 155.344 68.6406 154.812 69.2031C154.312 69.7344 153.672 70.0156 152.891 70.0469C152.297 70.0781 151.797 69.8438 151.391 69.3438C150.984 68.8438 150.641 68.2031 150.359 67.4219C150.109 66.6094 149.922 65.7188 149.797 64.75C149.672 63.75 149.578 62.7969 149.516 61.8906C149.453 60.9531 149.422 60.0938 149.422 59.3125C149.422 58.5312 149.422 57.9531 149.422 57.5781C149.422 57.0781 149.422 56.375 149.422 55.4688C149.422 54.5312 149.453 53.5312 149.516 52.4688C149.578 51.4062 149.688 50.3281 149.844 49.2344C150.031 48.1406 150.281 47.1406 150.594 46.2344C150.938 45.3281 151.375 44.5938 151.906 44.0312C152.438 43.4688 153.109 43.1875 153.922 43.1875C154.766 43.1875 155.406 43.6094 155.844 44.4531C156.281 45.2969 156.609 46.2812 156.828 47.4062C157.047 48.5312 157.172 49.6562 157.203 50.7812C157.234 51.875 157.25 52.6875 157.25 53.2188ZM180.5 63.3906C180.5 63.9531 180.469 64.6875 180.406 65.5938C180.375 66.5 180.25 67.3906 180.031 68.2656C179.812 69.1094 179.469 69.8438 179 70.4688C178.531 71.0938 177.875 71.4062 177.031 71.4062C175.875 71.4062 174.984 71.0312 174.359 70.2812C173.734 69.5312 173.438 68.5938 173.469 67.4688C172.469 68.3438 171.328 69.0312 170.047 69.5312C168.797 70.0312 167.516 70.2812 166.203 70.2812C165.297 70.2812 164.438 70.0625 163.625 69.625C162.812 69.1875 162.094 68.625 161.469 67.9375C160.844 67.25 160.344 66.4844 159.969 65.6406C159.594 64.7656 159.406 63.9062 159.406 63.0625C159.406 61.5625 159.859 60.25 160.766 59.125C161.703 58 162.844 57.0469 164.188 56.2656C165.531 55.4531 166.953 54.8125 168.453 54.3438C169.984 53.875 171.344 53.5625 172.531 53.4062C172.531 53.25 172.531 53.1094 172.531 52.9844C172.562 52.8594 172.578 52.7188 172.578 52.5625C172.578 51.5938 172.312 50.8125 171.781 50.2188C171.25 49.625 170.5 49.3281 169.531 49.3281C168.75 49.3281 168.078 49.4688 167.516 49.75C166.953 50 166.422 50.2969 165.922 50.6406C165.422 50.9531 164.922 51.25 164.422 51.5312C163.922 51.7812 163.359 51.9062 162.734 51.9062C162.047 51.9062 161.453 51.6875 160.953 51.25C160.484 50.8125 160.25 50.25 160.25 49.5625C160.25 48.5312 160.547 47.5938 161.141 46.75C161.766 45.9062 162.531 45.2031 163.438 44.6406C164.375 44.0469 165.375 43.5938 166.438 43.2812C167.531 42.9375 168.531 42.7656 169.438 42.7656C170.281 42.7656 171.125 42.875 171.969 43.0938C172.812 43.2812 173.609 43.5938 174.359 44.0312C175.109 44.4375 175.781 44.9531 176.375 45.5781C177 46.1719 177.5 46.875 177.875 47.6875C178.438 48.8438 178.891 50.0781 179.234 51.3906C179.578 52.6719 179.844 54 180.031 55.375C180.219 56.7188 180.344 58.0781 180.406 59.4531C180.469 60.7969 180.5 62.1094 180.5 63.3906ZM173 61.8906L172.859 58.7031C172.797 58.7031 172.734 58.7031 172.672 58.7031C172.609 58.6719 172.547 58.6562 172.484 58.6562C172.078 58.6562 171.562 58.7656 170.938 58.9844C170.344 59.1719 169.766 59.4531 169.203 59.8281C168.641 60.1719 168.156 60.5625 167.75 61C167.375 61.4375 167.188 61.8906 167.188 62.3594C167.188 62.7969 167.344 63.0938 167.656 63.25C167.969 63.4062 168.328 63.4844 168.734 63.4844C169.422 63.4844 170.156 63.3125 170.938 62.9688C171.719 62.5938 172.406 62.2344 173 61.8906Z" fill="#FC8854"/>
<defs>
<linearGradient id="paint0_linear_27_67" x1="40.8639" y1="16.9971" x2="40.8639" y2="69.483" gradientUnits="userSpaceOnUse">
<stop stop-color="#FFAD7D"/>
<stop offset="1" stop-color="#FF7D2F"/>
</linearGradient>
<linearGradient id="paint1_linear_27_67" x1="36.375" y1="60.0989" x2="36.375" y2="79.9374" gradientUnits="userSpaceOnUse">
<stop stop-color="#FFAD7D"/>
<stop offset="1" stop-color="#FF7D2F"/>
</linearGradient>
<linearGradient id="paint2_linear_27_67" x1="57.3926" y1="46.626" x2="57.3926" y2="76.631" gradientUnits="userSpaceOnUse">
<stop stop-color="#FFAD7D"/>
<stop offset="1" stop-color="#FF7D2F"/>
</linearGradient>
<clipPath id="clip0_27_67">
<rect width="62.938" height="62.938" fill="white" transform="translate(10 17)"/>
</clipPath>
</defs>
</svg>
