<svg width="222" height="126" viewBox="0 0 222 126" fill="none" xmlns="http://www.w3.org/2000/svg">
<path d="M101.75 27.5312C101.75 28.9688 101.396 30.2812 100.688 31.4688C99.9792 32.6354 99.0312 33.6146 97.8438 34.4062C98.4688 34.5312 99.0104 34.75 99.4688 35.0625C99.9271 35.3542 100.302 35.7188 100.594 36.1562C100.906 36.5938 101.135 37.0938 101.281 37.6562C101.448 38.1979 101.531 38.7708 101.531 39.375C101.531 40.5625 101.25 41.6042 100.688 42.5C100.146 43.375 99.4375 44.1042 98.5625 44.6875C97.6875 45.25 96.7083 45.6771 95.625 45.9688C94.5625 46.2396 93.5 46.375 92.4375 46.375C91.8542 46.375 91.2708 46.3333 90.6875 46.25C90.1042 46.1667 89.5521 46.0208 89.0312 45.8125C88.8438 45.75 88.6875 45.5 88.5625 45.0625C88.4375 44.6042 88.3333 44.0521 88.25 43.4062C88.1875 42.7604 88.1354 42.0625 88.0938 41.3125C88.0521 40.5625 88.0208 39.8438 88 39.1562C87.9792 38.4688 87.9688 37.8646 87.9688 37.3438C87.9688 36.8229 87.9688 36.4583 87.9688 36.25C87.9688 35.5208 87.9688 34.7917 87.9688 34.0625C87.9688 33.3125 87.9896 32.5729 88.0312 31.8438C88.0312 31.6562 88.0312 31.3646 88.0312 30.9688C88.0521 30.5729 88.0625 30.1354 88.0625 29.6562C88.0833 29.1562 88.1042 28.6354 88.125 28.0938C88.1667 27.5521 88.2083 27.0521 88.25 26.5938C88.3125 26.1146 88.3854 25.7083 88.4688 25.375C88.5729 25.0417 88.6875 24.8333 88.8125 24.75C89.2917 24.4375 89.8229 24.1458 90.4062 23.875C90.9896 23.5833 91.5938 23.3333 92.2188 23.125C92.8438 22.9167 93.4688 22.75 94.0938 22.625C94.7188 22.5 95.3125 22.4375 95.875 22.4375C96.6458 22.4375 97.3854 22.5521 98.0938 22.7812C98.8229 22.9896 99.4479 23.3125 99.9688 23.75C100.51 24.1875 100.938 24.7292 101.25 25.375C101.583 26 101.75 26.7188 101.75 27.5312ZM96.5625 29.1875C96.5625 28.8333 96.4479 28.5729 96.2188 28.4062C96.0104 28.2396 95.7292 28.1562 95.375 28.1562C95.0833 28.1562 94.7708 28.2188 94.4375 28.3438C94.125 28.4688 93.8542 28.6354 93.625 28.8438C93.5625 28.9062 93.5 29.0833 93.4375 29.375C93.3958 29.6667 93.3542 30 93.3125 30.375C93.2917 30.7292 93.2708 31.0729 93.25 31.4062C93.25 31.7188 93.25 31.9271 93.25 32.0312C93.25 32.0729 93.25 32.1458 93.25 32.25C93.25 32.3333 93.25 32.4271 93.25 32.5312C93.2708 32.6354 93.2917 32.7292 93.3125 32.8125C93.3333 32.8958 93.3646 32.9375 93.4062 32.9375C93.7604 32.9375 94.125 32.8125 94.5 32.5625C94.875 32.2917 95.2083 31.9688 95.5 31.5938C95.8125 31.1979 96.0625 30.7812 96.25 30.3438C96.4583 29.9062 96.5625 29.5208 96.5625 29.1875ZM96.4375 38.2188C96.4375 37.8646 96.3125 37.6146 96.0625 37.4688C95.8125 37.3229 95.5312 37.25 95.2188 37.25C94.9271 37.25 94.6146 37.3229 94.2812 37.4688C93.9688 37.5938 93.7083 37.75 93.5 37.9375C93.4375 37.9792 93.3854 38.0833 93.3438 38.25C93.3229 38.4167 93.3021 38.6042 93.2812 38.8125C93.2812 39 93.2708 39.1875 93.25 39.375C93.25 39.5417 93.25 39.6562 93.25 39.7188C93.25 39.7604 93.25 39.8438 93.25 39.9688C93.25 40.0938 93.25 40.2292 93.25 40.375C93.2708 40.5 93.2917 40.625 93.3125 40.75C93.3542 40.8542 93.3958 40.9062 93.4375 40.9062C93.7292 40.9062 94.0521 40.8229 94.4062 40.6562C94.7604 40.4896 95.0833 40.2812 95.375 40.0312C95.6875 39.7812 95.9375 39.5 96.125 39.1875C96.3333 38.8542 96.4375 38.5312 96.4375 38.2188ZM109.094 46.9062C108.031 46.9062 107.104 46.625 106.312 46.0625C105.521 45.5 104.854 44.7812 104.312 43.9062C103.771 43.0312 103.365 42.0625 103.094 41C102.823 39.9167 102.688 38.8542 102.688 37.8125C102.688 36.7083 102.823 35.5729 103.094 34.4062C103.365 33.2188 103.781 32.1458 104.344 31.1875C104.906 30.2083 105.625 29.4167 106.5 28.8125C107.375 28.1875 108.417 27.875 109.625 27.875C110.792 27.875 111.781 28.1979 112.594 28.8438C113.427 29.4688 114.094 30.2604 114.594 31.2188C115.094 32.1562 115.448 33.1875 115.656 34.3125C115.865 35.4375 115.938 36.5 115.875 37.5C115.812 38.6042 115.635 39.7188 115.344 40.8438C115.073 41.9688 114.667 42.9792 114.125 43.875C113.583 44.7708 112.896 45.5 112.062 46.0625C111.229 46.625 110.24 46.9062 109.094 46.9062ZM109.406 32.7812C109.094 32.7812 108.812 32.9479 108.562 33.2812C108.333 33.6146 108.135 34.0208 107.969 34.5C107.823 34.9792 107.708 35.4896 107.625 36.0312C107.542 36.5521 107.5 37.0104 107.5 37.4062C107.5 37.9062 107.542 38.4479 107.625 39.0312C107.729 39.6146 107.865 40.1562 108.031 40.6562C108.198 41.1354 108.396 41.5417 108.625 41.875C108.875 42.1875 109.156 42.3438 109.469 42.3438C109.802 42.3438 110.083 42.1875 110.312 41.875C110.562 41.5625 110.76 41.1667 110.906 40.6875C111.052 40.2083 111.156 39.6875 111.219 39.125C111.281 38.5417 111.312 38 111.312 37.5C111.312 37.0417 111.271 36.5417 111.188 36C111.104 35.4375 110.979 34.9167 110.812 34.4375C110.667 33.9583 110.469 33.5625 110.219 33.25C109.99 32.9375 109.719 32.7812 109.406 32.7812ZM123.406 46.9062C122.344 46.9062 121.417 46.625 120.625 46.0625C119.833 45.5 119.167 44.7812 118.625 43.9062C118.083 43.0312 117.677 42.0625 117.406 41C117.135 39.9167 117 38.8542 117 37.8125C117 36.7083 117.135 35.5729 117.406 34.4062C117.677 33.2188 118.094 32.1458 118.656 31.1875C119.219 30.2083 119.938 29.4167 120.812 28.8125C121.688 28.1875 122.729 27.875 123.938 27.875C125.104 27.875 126.094 28.1979 126.906 28.8438C127.74 29.4688 128.406 30.2604 128.906 31.2188C129.406 32.1562 129.76 33.1875 129.969 34.3125C130.177 35.4375 130.25 36.5 130.188 37.5C130.125 38.6042 129.948 39.7188 129.656 40.8438C129.385 41.9688 128.979 42.9792 128.438 43.875C127.896 44.7708 127.208 45.5 126.375 46.0625C125.542 46.625 124.552 46.9062 123.406 46.9062ZM123.719 32.7812C123.406 32.7812 123.125 32.9479 122.875 33.2812C122.646 33.6146 122.448 34.0208 122.281 34.5C122.135 34.9792 122.021 35.4896 121.938 36.0312C121.854 36.5521 121.812 37.0104 121.812 37.4062C121.812 37.9062 121.854 38.4479 121.938 39.0312C122.042 39.6146 122.177 40.1562 122.344 40.6562C122.51 41.1354 122.708 41.5417 122.938 41.875C123.188 42.1875 123.469 42.3438 123.781 42.3438C124.115 42.3438 124.396 42.1875 124.625 41.875C124.875 41.5625 125.073 41.1667 125.219 40.6875C125.365 40.2083 125.469 39.6875 125.531 39.125C125.594 38.5417 125.625 38 125.625 37.5C125.625 37.0417 125.583 36.5417 125.5 36C125.417 35.4375 125.292 34.9167 125.125 34.4375C124.979 33.9583 124.781 33.5625 124.531 33.25C124.302 32.9375 124.031 32.7812 123.719 32.7812ZM147.469 44.625C147.469 45.2083 147.323 45.6771 147.031 46.0312C146.74 46.4062 146.292 46.5938 145.688 46.5938C145.208 46.5938 144.76 46.4479 144.344 46.1562C143.948 45.8646 143.573 45.5104 143.219 45.0938C142.885 44.6562 142.583 44.1979 142.312 43.7188C142.062 43.2396 141.854 42.8229 141.688 42.4688C141.25 41.5938 140.812 40.7188 140.375 39.8438C139.958 38.9688 139.542 38.0833 139.125 37.1875L137.25 38.3438C137.271 38.9479 137.24 39.5521 137.156 40.1562C137.073 40.7604 137.01 41.3646 136.969 41.9688C136.927 42.3854 136.854 42.8438 136.75 43.3438C136.667 43.8229 136.521 44.2812 136.312 44.7188C136.104 45.1354 135.823 45.4896 135.469 45.7812C135.115 46.0729 134.677 46.2188 134.156 46.2188C133.677 46.2188 133.281 46.125 132.969 45.9375C132.656 45.7292 132.396 45.4688 132.188 45.1562C132 44.8438 131.865 44.4896 131.781 44.0938C131.698 43.6979 131.656 43.2917 131.656 42.875V42.625C131.656 41.3958 131.719 40.1667 131.844 38.9375C131.99 37.6875 132.083 36.4375 132.125 35.1875C132.167 33.5417 132.219 31.8958 132.281 30.25C132.344 28.6042 132.427 26.9583 132.531 25.3125C132.552 24.9375 132.615 24.5729 132.719 24.2188C132.823 23.8646 132.979 23.5521 133.188 23.2812C133.396 22.9896 133.646 22.7604 133.938 22.5938C134.25 22.4271 134.615 22.3438 135.031 22.3438C135.677 22.3438 136.156 22.5729 136.469 23.0312C136.802 23.4896 137.031 24.0417 137.156 24.6875C137.281 25.3333 137.333 26 137.312 26.6875C137.312 27.375 137.312 27.9479 137.312 28.4062C137.312 29.7188 137.281 31.0312 137.219 32.3438C137.823 31.8438 138.406 31.2708 138.969 30.625C139.552 29.9792 140.062 29.3229 140.5 28.6562C140.771 28.2604 141.083 27.7188 141.438 27.0312C141.792 26.3229 142.177 25.6458 142.594 25C143.01 24.3333 143.469 23.7604 143.969 23.2812C144.469 22.7812 145 22.5312 145.562 22.5312C146.167 22.5312 146.604 22.7083 146.875 23.0625C147.167 23.3958 147.312 23.8438 147.312 24.4062C147.312 25.2396 147.177 26.0938 146.906 26.9688C146.656 27.8438 146.312 28.7083 145.875 29.5625C145.438 30.3958 144.938 31.1979 144.375 31.9688C143.833 32.7188 143.281 33.375 142.719 33.9375C143.302 34.9167 143.854 35.9062 144.375 36.9062C144.896 37.8854 145.417 38.875 145.938 39.875C146.125 40.2083 146.302 40.5729 146.469 40.9688C146.656 41.3646 146.823 41.7708 146.969 42.1875C147.115 42.6042 147.229 43.0208 147.312 43.4375C147.417 43.8542 147.469 44.25 147.469 44.625ZM177.5 42.5938C177.438 43.1354 177.344 43.6667 177.219 44.1875C177.115 44.7083 176.979 45.1771 176.812 45.5938C176.646 45.9896 176.427 46.3021 176.156 46.5312C175.906 46.7812 175.615 46.9062 175.281 46.9062C174.948 46.9062 174.646 46.6458 174.375 46.125C174.104 45.625 173.844 44.9583 173.594 44.125C173.365 43.2708 173.146 42.3125 172.938 41.25C172.75 40.1875 172.573 39.1146 172.406 38.0312C172.26 36.9271 172.135 35.8542 172.031 34.8125C171.927 33.7708 171.844 32.8646 171.781 32.0938C171.656 32.8854 171.51 33.7708 171.344 34.75C171.177 35.7292 170.979 36.7292 170.75 37.75C170.521 38.75 170.271 39.7396 170 40.7188C169.729 41.6771 169.438 42.5417 169.125 43.3125C168.812 44.0625 168.479 44.6667 168.125 45.125C167.771 45.5833 167.396 45.8125 167 45.8125C166.646 45.8125 166.292 45.5729 165.938 45.0938C165.583 44.6146 165.24 43.9896 164.906 43.2188C164.573 42.4271 164.26 41.5521 163.969 40.5938C163.677 39.6354 163.406 38.6771 163.156 37.7188C162.906 36.7396 162.688 35.8229 162.5 34.9688C162.312 34.0938 162.167 33.3646 162.062 32.7812C162.062 33.2188 162.052 33.7083 162.031 34.25C162.031 34.7708 162.031 35.1458 162.031 35.375C162.031 35.4792 162.021 35.8229 162 36.4062C162 36.9896 161.969 37.6875 161.906 38.5C161.844 39.3125 161.75 40.1875 161.625 41.125C161.5 42.0417 161.312 42.8958 161.062 43.6875C160.833 44.4792 160.542 45.1458 160.188 45.6875C159.833 46.2292 159.396 46.5208 158.875 46.5625C158.458 46.375 158.104 46.0625 157.812 45.625C157.542 45.1667 157.312 44.6354 157.125 44.0312C156.938 43.4271 156.792 42.7812 156.688 42.0938C156.583 41.4062 156.5 40.7396 156.438 40.0938C156.375 39.4271 156.333 38.8125 156.312 38.25C156.312 37.6875 156.312 37.2292 156.312 36.875C156.312 36.25 156.344 35.4688 156.406 34.5312C156.49 33.5729 156.615 32.5729 156.781 31.5312C156.948 30.4896 157.167 29.4479 157.438 28.4062C157.708 27.3646 158.031 26.4375 158.406 25.625C158.802 24.7917 159.25 24.1146 159.75 23.5938C160.271 23.0729 160.865 22.8125 161.531 22.8125C161.844 22.8125 162.177 22.9896 162.531 23.3438C162.885 23.6979 163.24 24.1667 163.594 24.75C163.948 25.3125 164.292 25.9479 164.625 26.6562C164.958 27.3646 165.271 28.0833 165.562 28.8125C165.875 29.5208 166.146 30.2083 166.375 30.875C166.604 31.5208 166.792 32.0729 166.938 32.5312C167.104 32.0312 167.312 31.4479 167.562 30.7812C167.812 30.1146 168.083 29.4271 168.375 28.7188C168.688 27.9896 169.021 27.2812 169.375 26.5938C169.75 25.8854 170.135 25.2604 170.531 24.7188C170.927 24.1562 171.323 23.7083 171.719 23.375C172.135 23.0208 172.552 22.8438 172.969 22.8438C173.698 22.8438 174.323 23.1146 174.844 23.6562C175.365 24.1979 175.802 24.9062 176.156 25.7812C176.51 26.6354 176.792 27.6042 177 28.6875C177.208 29.75 177.365 30.8125 177.469 31.875C177.594 32.9167 177.667 33.8958 177.688 34.8125C177.729 35.7292 177.75 36.4688 177.75 37.0312C177.75 37.2604 177.75 37.5729 177.75 37.9688C177.75 38.3646 177.74 38.8125 177.719 39.3125C177.719 39.8125 177.698 40.3438 177.656 40.9062C177.615 41.4688 177.562 42.0312 177.5 42.5938ZM186.75 55.0938C186.25 55.0938 185.677 55.0104 185.031 54.8438C184.406 54.6979 183.812 54.4792 183.25 54.1875C182.688 53.8958 182.208 53.5417 181.812 53.125C181.438 52.7083 181.25 52.2292 181.25 51.6875C181.25 51.4792 181.302 51.2708 181.406 51.0625C181.51 50.8542 181.646 50.6667 181.812 50.5C182 50.3542 182.198 50.2292 182.406 50.125C182.615 50.0417 182.833 50 183.062 50C183.312 50 183.552 50.0312 183.781 50.0938C184.031 50.1771 184.281 50.2708 184.531 50.375C184.802 50.4792 185.062 50.5729 185.312 50.6562C185.583 50.7396 185.865 50.7812 186.156 50.7812C186.677 50.7812 187.125 50.6042 187.5 50.25C187.896 49.8958 188.229 49.4271 188.5 48.8438C188.771 48.2812 188.99 47.6458 189.156 46.9375C189.323 46.25 189.448 45.5625 189.531 44.875C189.635 44.1875 189.708 43.5417 189.75 42.9375C189.792 42.3333 189.823 41.8438 189.844 41.4688C189.115 42.5729 188.385 43.4271 187.656 44.0312C186.948 44.6146 186.073 44.9062 185.031 44.9062C184.24 44.9062 183.542 44.7396 182.938 44.4062C182.354 44.0729 181.854 43.6354 181.438 43.0938C181.021 42.5521 180.677 41.9375 180.406 41.25C180.135 40.5417 179.927 39.8125 179.781 39.0625C179.656 38.3125 179.573 37.5833 179.531 36.875C179.49 36.1458 179.49 35.4792 179.531 34.875C179.552 34.4167 179.604 33.8229 179.688 33.0938C179.792 32.3438 179.948 31.6146 180.156 30.9062C180.365 30.1979 180.656 29.6042 181.031 29.125C181.406 28.625 181.896 28.3958 182.5 28.4375C182.896 28.4583 183.219 28.6354 183.469 28.9688C183.719 29.2812 183.917 29.6771 184.062 30.1562C184.229 30.6354 184.344 31.1667 184.406 31.75C184.49 32.3125 184.542 32.875 184.562 33.4375C184.583 34 184.583 34.5208 184.562 35C184.562 35.4583 184.562 35.8125 184.562 36.0625C184.562 36.4167 184.573 36.7708 184.594 37.125C184.615 37.4792 184.688 37.8021 184.812 38.0938C184.938 38.3646 185.125 38.5833 185.375 38.75C185.646 38.9167 186.021 39 186.5 39C187.042 39 187.469 38.8646 187.781 38.5938C188.115 38.3229 188.354 37.9896 188.5 37.5938C188.667 37.1771 188.771 36.7396 188.812 36.2812C188.854 35.8021 188.875 35.3542 188.875 34.9375C188.875 34.6458 188.875 34.2917 188.875 33.875C188.875 33.4583 188.875 33.0208 188.875 32.5625C188.896 32.1042 188.938 31.6562 189 31.2188C189.083 30.7604 189.198 30.3542 189.344 30C189.51 29.625 189.719 29.3229 189.969 29.0938C190.24 28.8646 190.583 28.75 191 28.75C191.521 28.75 191.969 28.9583 192.344 29.375C192.719 29.7708 193.031 30.3021 193.281 30.9688C193.552 31.6146 193.76 32.3333 193.906 33.125C194.073 33.9167 194.198 34.7083 194.281 35.5C194.365 36.2708 194.417 36.9896 194.438 37.6562C194.479 38.3021 194.5 38.8125 194.5 39.1875C194.5 40.0625 194.469 41.0625 194.406 42.1875C194.344 43.2917 194.219 44.4375 194.031 45.625C193.865 46.7917 193.604 47.9375 193.25 49.0625C192.896 50.2083 192.427 51.2292 191.844 52.125C191.281 53.0208 190.583 53.7396 189.75 54.2812C188.917 54.8229 187.917 55.0938 186.75 55.0938ZM104.031 73.9375C104.031 75.7708 103.656 77.5417 102.906 79.25C102.156 80.9375 101.146 82.4375 99.875 83.75C98.625 85.0625 97.1562 86.1146 95.4688 86.9062C93.8021 87.6771 92.0417 88.0625 90.1875 88.0625H90.125C89.75 88.0625 89.4375 87.8958 89.1875 87.5625C88.9583 87.2083 88.7604 86.7708 88.5938 86.25C88.4271 85.7292 88.3021 85.1458 88.2188 84.5C88.1354 83.8542 88.0729 83.2292 88.0312 82.625C87.9896 82 87.9688 81.4479 87.9688 80.9688C87.9688 80.4688 87.9688 80.0938 87.9688 79.8438C87.9688 79.1354 87.9792 78.4375 88 77.75C88.0208 77.0417 88.0521 76.3333 88.0938 75.625C88.0938 75.3958 88.1042 75.0625 88.125 74.625C88.1667 74.1667 88.2083 73.6562 88.25 73.0938C88.2917 72.5312 88.3438 71.9479 88.4062 71.3438C88.4688 70.7188 88.5312 70.1458 88.5938 69.625C88.6771 69.0833 88.75 68.6146 88.8125 68.2188C88.8958 67.8021 88.9896 67.5208 89.0938 67.375C89.3646 66.9167 89.7812 66.5104 90.3438 66.1562C90.9062 65.8021 91.5104 65.5104 92.1562 65.2812C92.8229 65.0521 93.4896 64.8854 94.1562 64.7812C94.8438 64.6562 95.4375 64.5938 95.9375 64.5938C97.3125 64.5938 98.5 64.8542 99.5 65.375C100.521 65.875 101.365 66.5625 102.031 67.4375C102.719 68.2917 103.219 69.2812 103.531 70.4062C103.865 71.5312 104.031 72.7083 104.031 73.9375ZM98.7812 74.8438C98.7812 74.3854 98.6979 73.9167 98.5312 73.4375C98.3646 72.9583 98.125 72.5208 97.8125 72.125C97.5208 71.7292 97.1562 71.4167 96.7188 71.1875C96.3021 70.9375 95.8333 70.8125 95.3125 70.8125C94.875 70.8125 94.4271 70.9167 93.9688 71.125C93.8646 71.1875 93.7708 71.3854 93.6875 71.7188C93.6042 72.0312 93.5312 72.4167 93.4688 72.875C93.4271 73.3333 93.3854 73.8333 93.3438 74.375C93.3021 74.9167 93.2708 75.4375 93.25 75.9375C93.25 76.4167 93.2396 76.8438 93.2188 77.2188C93.2188 77.5938 93.2188 77.8438 93.2188 77.9688C93.2188 78.1771 93.2188 78.4896 93.2188 78.9062C93.2188 79.3021 93.2292 79.6979 93.25 80.0938C93.2917 80.4896 93.3333 80.8333 93.375 81.125C93.4167 81.4167 93.4896 81.5625 93.5938 81.5625C94.2188 81.5625 94.8333 81.3229 95.4375 80.8438C96.0625 80.3438 96.625 79.7396 97.125 79.0312C97.625 78.3229 98.0208 77.5833 98.3125 76.8125C98.625 76.0417 98.7812 75.3854 98.7812 74.8438ZM118.531 82.4375C118.531 83.1458 118.302 83.8438 117.844 84.5312C117.406 85.1979 116.844 85.8021 116.156 86.3438C115.49 86.8646 114.771 87.2917 114 87.625C113.229 87.9375 112.521 88.0938 111.875 88.0938C110.771 88.0938 109.781 87.8229 108.906 87.2812C108.052 86.7188 107.333 86.0104 106.75 85.1562C106.167 84.3021 105.719 83.3646 105.406 82.3438C105.115 81.3021 104.969 80.2917 104.969 79.3125C104.969 78.2708 105.115 77.1562 105.406 75.9688C105.698 74.7812 106.135 73.6875 106.719 72.6875C107.323 71.6875 108.073 70.8542 108.969 70.1875C109.885 69.5208 110.969 69.1875 112.219 69.1875C112.927 69.1875 113.604 69.3125 114.25 69.5625C114.896 69.7917 115.458 70.125 115.938 70.5625C116.417 71 116.802 71.5208 117.094 72.125C117.385 72.7292 117.531 73.4062 117.531 74.1562C117.531 75.1354 117.323 76.0521 116.906 76.9062C116.49 77.7604 115.938 78.5 115.25 79.125C114.562 79.75 113.771 80.2604 112.875 80.6562C111.979 81.0312 111.062 81.2396 110.125 81.2812C110.208 81.8854 110.448 82.3229 110.844 82.5938C111.26 82.8646 111.75 83 112.312 83C112.729 83 113.135 82.8958 113.531 82.6875C113.927 82.4792 114.312 82.25 114.688 82C115.062 81.7292 115.427 81.4896 115.781 81.2812C116.156 81.0729 116.531 80.9688 116.906 80.9688C117.323 80.9688 117.698 81.1042 118.031 81.375C118.365 81.6458 118.531 82 118.531 82.4375ZM113.469 74.7812C113.469 74.5104 113.396 74.2292 113.25 73.9375C113.104 73.6458 112.875 73.5 112.562 73.5C112.104 73.5 111.719 73.625 111.406 73.875C111.094 74.1042 110.833 74.4062 110.625 74.7812C110.417 75.1354 110.25 75.5208 110.125 75.9375C110.021 76.3542 109.958 76.7396 109.938 77.0938C110.229 77.0312 110.573 76.9479 110.969 76.8438C111.385 76.7396 111.771 76.6042 112.125 76.4375C112.5 76.25 112.812 76.0208 113.062 75.75C113.333 75.4792 113.469 75.1562 113.469 74.7812ZM128.938 70.8125C128.938 71.4167 128.729 71.8646 128.312 72.1562C127.917 72.4479 127.469 72.7292 126.969 73C126.469 73.25 126.01 73.5521 125.594 73.9062C125.198 74.2604 125 74.7917 125 75.5C125 75.875 125.083 76.1979 125.25 76.4688C125.438 76.7396 125.656 76.9896 125.906 77.2188C126.177 77.4271 126.469 77.6458 126.781 77.875C127.094 78.1042 127.375 78.3646 127.625 78.6562C127.896 78.9479 128.115 79.3021 128.281 79.7188C128.469 80.1354 128.562 80.6458 128.562 81.25C128.562 82.125 128.333 82.9896 127.875 83.8438C127.438 84.6771 126.865 85.4271 126.156 86.0938C125.469 86.7396 124.688 87.2604 123.812 87.6562C122.938 88.0521 122.073 88.25 121.219 88.25C120.865 88.25 120.51 88.2188 120.156 88.1562C119.802 88.1146 119.479 88.0208 119.188 87.875C118.917 87.7292 118.688 87.5312 118.5 87.2812C118.312 87.0104 118.219 86.6667 118.219 86.25C118.219 85.6667 118.333 85.2188 118.562 84.9062C118.792 84.5729 119.083 84.3125 119.438 84.125C119.792 83.9375 120.167 83.7917 120.562 83.6875C120.979 83.5833 121.365 83.4583 121.719 83.3125C122.073 83.1458 122.365 82.9375 122.594 82.6875C122.823 82.4375 122.938 82.0833 122.938 81.625C122.938 81.1875 122.76 80.7396 122.406 80.2812C122.073 79.8021 121.698 79.3021 121.281 78.7812C120.865 78.2396 120.479 77.6667 120.125 77.0625C119.792 76.4583 119.625 75.7917 119.625 75.0625C119.625 74.1667 119.802 73.3438 120.156 72.5938C120.531 71.8229 121.021 71.1562 121.625 70.5938C122.25 70.0312 122.958 69.5938 123.75 69.2812C124.542 68.9479 125.375 68.7812 126.25 68.7812C126.583 68.7812 126.906 68.8125 127.219 68.875C127.552 68.9375 127.844 69.0521 128.094 69.2188C128.344 69.3646 128.542 69.5729 128.688 69.8438C128.854 70.0938 128.938 70.4167 128.938 70.8125ZM144.062 71.1875C144.062 71.7708 143.906 72.3646 143.594 72.9688C143.302 73.5729 142.938 74.1771 142.5 74.7812C142.083 75.3646 141.635 75.9271 141.156 76.4688C140.698 76.9896 140.292 77.4688 139.938 77.9062C140.229 78.3646 140.594 78.9792 141.031 79.75C141.469 80.5 141.885 81.3021 142.281 82.1562C142.677 83.0104 143.01 83.8438 143.281 84.6562C143.573 85.4688 143.719 86.1458 143.719 86.6875C143.719 87.125 143.583 87.5312 143.312 87.9062C143.042 88.2604 142.667 88.4375 142.188 88.4375C141.833 88.4375 141.469 88.2917 141.094 88C140.74 87.6875 140.375 87.2917 140 86.8125C139.646 86.3125 139.302 85.7604 138.969 85.1562C138.635 84.5521 138.323 83.9583 138.031 83.375C137.76 82.7917 137.51 82.25 137.281 81.75C137.073 81.2292 136.906 80.8125 136.781 80.5C136.51 80.7708 136.219 81 135.906 81.1875C135.615 81.3542 135.323 81.5521 135.031 81.7812C135.031 82.2188 135.01 82.8333 134.969 83.625C134.948 84.4167 134.854 85.1979 134.688 85.9688C134.542 86.7396 134.292 87.4167 133.938 88C133.583 88.5625 133.062 88.8438 132.375 88.8438C131.833 88.8438 131.417 88.5938 131.125 88.0938C130.833 87.6146 130.615 87.0521 130.469 86.4062C130.344 85.7396 130.271 85.0729 130.25 84.4062C130.229 83.7188 130.219 83.1979 130.219 82.8438C130.219 81.3021 130.26 79.7604 130.344 78.2188C130.427 76.6771 130.479 75.1354 130.5 73.5938C130.5 73.2396 130.5 72.7812 130.5 72.2188C130.521 71.6354 130.562 71.0104 130.625 70.3438C130.688 69.6771 130.781 69 130.906 68.3125C131.031 67.625 131.208 67.0104 131.438 66.4688C131.667 65.9062 131.958 65.4583 132.312 65.125C132.688 64.7708 133.135 64.5938 133.656 64.5938C134.031 64.5938 134.344 64.7396 134.594 65.0312C134.865 65.3021 135.073 65.6562 135.219 66.0938C135.385 66.5312 135.5 67.0208 135.562 67.5625C135.646 68.1042 135.698 68.6458 135.719 69.1875C135.76 69.7083 135.781 70.1979 135.781 70.6562C135.781 71.1146 135.781 71.4792 135.781 71.75C135.781 71.9375 135.771 72.2188 135.75 72.5938C135.75 72.9479 135.74 73.3229 135.719 73.7188C135.719 74.1146 135.719 74.4792 135.719 74.8125C135.719 75.1458 135.74 75.3854 135.781 75.5312C135.927 75.5312 136.146 75.3958 136.438 75.125C136.729 74.8333 137.062 74.4688 137.438 74.0312C137.833 73.5938 138.25 73.1354 138.688 72.6562C139.146 72.1562 139.604 71.6875 140.062 71.25C140.542 70.8125 141.01 70.4583 141.469 70.1875C141.927 69.8958 142.354 69.75 142.75 69.75C143.167 69.75 143.49 69.8958 143.719 70.1875C143.948 70.4792 144.062 70.8125 144.062 71.1875ZM158.531 74.9062C158.531 75.2396 158.51 75.6979 158.469 76.2812C158.427 76.8438 158.365 77.4583 158.281 78.125C158.198 78.7708 158.073 79.4375 157.906 80.125C157.76 80.7917 157.583 81.4062 157.375 81.9688C157.167 82.5104 156.917 82.9583 156.625 83.3125C156.333 83.6458 156 83.8125 155.625 83.8125C155.167 83.8125 154.771 83.5938 154.438 83.1562C154.125 82.6979 153.854 82.125 153.625 81.4375C153.417 80.7292 153.25 79.9479 153.125 79.0938C153 78.2396 152.906 77.4062 152.844 76.5938C152.781 75.7604 152.74 75 152.719 74.3125C152.719 73.6042 152.719 73.0625 152.719 72.6875C152.719 72.3125 152.719 71.8438 152.719 71.2812C152.719 70.6979 152.74 70.0833 152.781 69.4375C152.844 68.7917 152.927 68.1562 153.031 67.5312C153.156 66.8854 153.333 66.3021 153.562 65.7812C153.792 65.2604 154.094 64.8438 154.469 64.5312C154.844 64.1979 155.312 64.0312 155.875 64.0312C156.375 64.0312 156.781 64.25 157.094 64.6875C157.427 65.1042 157.688 65.6562 157.875 66.3438C158.083 67.0104 158.229 67.7604 158.312 68.5938C158.417 69.4271 158.479 70.25 158.5 71.0625C158.542 71.8542 158.552 72.5938 158.531 73.2812C158.531 73.9688 158.531 74.5104 158.531 74.9062ZM157.938 86.7812C157.938 87.1354 157.854 87.4479 157.688 87.7188C157.521 87.9688 157.302 88.1771 157.031 88.3438C156.76 88.5312 156.469 88.6667 156.156 88.75C155.844 88.8333 155.531 88.875 155.219 88.875C154.76 88.875 154.323 88.75 153.906 88.5C153.49 88.2708 153.281 87.8958 153.281 87.375C153.281 87.0625 153.365 86.7812 153.531 86.5312C153.719 86.2604 153.948 86.0312 154.219 85.8438C154.49 85.6562 154.781 85.5104 155.094 85.4062C155.427 85.3021 155.74 85.25 156.031 85.25C156.51 85.25 156.948 85.375 157.344 85.625C157.74 85.8542 157.938 86.2396 157.938 86.7812Z" fill="#FC6254"/>
<path d="M9 65H67.5L74 104L38.5 77L3 104L9 65Z" fill="#FC6254"/>
<path d="M0.107004 47.5C0.107004 26.237 17.344 9 38.607 9C59.87 9 77.107 26.237 77.107 47.5C77.107 48.8831 77.0341 50.2492 76.8918 51.5946C76.3861 56.379 75.0039 60.902 72.909 65.0001C67.1831 78.8208 55.6498 97.8654 38.107 126C18.7004 94.1702 8.10826 75.3662 3.28806 62.8484C2.31092 60.603 1.54163 58.2463 1.0045 55.8025C0.416783 53.1286 0.107004 50.3505 0.107004 47.5Z" fill="#FD8C82"/>
<circle cx="38.5" cy="47.5" r="30.5" fill="#FC6254"/>
<path d="M15 58.3529V38.1176M62 38.1176L38.6013 24.0608C38.5388 24.0233 38.4609 24.0227 38.3978 24.0593L15.0996 37.5892C15.0379 37.625 15 37.6909 15 37.7622V38.1176M62 38.1176V57.4118M62 38.1176L38.5 51.7647M38.5 51.7647V72M38.5 51.7647L15 38.1176" stroke="white" stroke-width="3"/>
</svg>
