<svg width="222" height="139" viewBox="0 0 222 139" fill="none" xmlns="http://www.w3.org/2000/svg">
<path d="M109.312 42.5938C109.25 43.1354 109.156 43.6667 109.031 44.1875C108.927 44.7083 108.792 45.1771 108.625 45.5938C108.458 45.9896 108.24 46.3021 107.969 46.5312C107.719 46.7812 107.427 46.9062 107.094 46.9062C106.76 46.9062 106.458 46.6458 106.188 46.125C105.917 45.625 105.656 44.9583 105.406 44.125C105.177 43.2708 104.958 42.3125 104.75 41.25C104.562 40.1875 104.385 39.1146 104.219 38.0312C104.073 36.9271 103.948 35.8542 103.844 34.8125C103.74 33.7708 103.656 32.8646 103.594 32.0938C103.469 32.8854 103.323 33.7708 103.156 34.75C102.99 35.7292 102.792 36.7292 102.562 37.75C102.333 38.75 102.083 39.7396 101.812 40.7188C101.542 41.6771 101.25 42.5417 100.938 43.3125C100.625 44.0625 100.292 44.6667 99.9375 45.125C99.5833 45.5833 99.2083 45.8125 98.8125 45.8125C98.4583 45.8125 98.1042 45.5729 97.75 45.0938C97.3958 44.6146 97.0521 43.9896 96.7188 43.2188C96.3854 42.4271 96.0729 41.5521 95.7812 40.5938C95.4896 39.6354 95.2188 38.6771 94.9688 37.7188C94.7188 36.7396 94.5 35.8229 94.3125 34.9688C94.125 34.0938 93.9792 33.3646 93.875 32.7812C93.875 33.2188 93.8646 33.7083 93.8438 34.25C93.8438 34.7708 93.8438 35.1458 93.8438 35.375C93.8438 35.4792 93.8333 35.8229 93.8125 36.4062C93.8125 36.9896 93.7812 37.6875 93.7188 38.5C93.6562 39.3125 93.5625 40.1875 93.4375 41.125C93.3125 42.0417 93.125 42.8958 92.875 43.6875C92.6458 44.4792 92.3542 45.1458 92 45.6875C91.6458 46.2292 91.2083 46.5208 90.6875 46.5625C90.2708 46.375 89.9167 46.0625 89.625 45.625C89.3542 45.1667 89.125 44.6354 88.9375 44.0312C88.75 43.4271 88.6042 42.7812 88.5 42.0938C88.3958 41.4062 88.3125 40.7396 88.25 40.0938C88.1875 39.4271 88.1458 38.8125 88.125 38.25C88.125 37.6875 88.125 37.2292 88.125 36.875C88.125 36.25 88.1562 35.4688 88.2188 34.5312C88.3021 33.5729 88.4271 32.5729 88.5938 31.5312C88.7604 30.4896 88.9792 29.4479 89.25 28.4062C89.5208 27.3646 89.8438 26.4375 90.2188 25.625C90.6146 24.7917 91.0625 24.1146 91.5625 23.5938C92.0833 23.0729 92.6771 22.8125 93.3438 22.8125C93.6562 22.8125 93.9896 22.9896 94.3438 23.3438C94.6979 23.6979 95.0521 24.1667 95.4062 24.75C95.7604 25.3125 96.1042 25.9479 96.4375 26.6562C96.7708 27.3646 97.0833 28.0833 97.375 28.8125C97.6875 29.5208 97.9583 30.2083 98.1875 30.875C98.4167 31.5208 98.6042 32.0729 98.75 32.5312C98.9167 32.0312 99.125 31.4479 99.375 30.7812C99.625 30.1146 99.8958 29.4271 100.188 28.7188C100.5 27.9896 100.833 27.2812 101.188 26.5938C101.562 25.8854 101.948 25.2604 102.344 24.7188C102.74 24.1562 103.135 23.7083 103.531 23.375C103.948 23.0208 104.365 22.8438 104.781 22.8438C105.51 22.8438 106.135 23.1146 106.656 23.6562C107.177 24.1979 107.615 24.9062 107.969 25.7812C108.323 26.6354 108.604 27.6042 108.812 28.6875C109.021 29.75 109.177 30.8125 109.281 31.875C109.406 32.9167 109.479 33.8958 109.5 34.8125C109.542 35.7292 109.562 36.4688 109.562 37.0312C109.562 37.2604 109.562 37.5729 109.562 37.9688C109.562 38.3646 109.552 38.8125 109.531 39.3125C109.531 39.8125 109.51 40.3438 109.469 40.9062C109.427 41.4688 109.375 42.0312 109.312 42.5938ZM124.875 40.4375C124.875 41.1458 124.646 41.8438 124.188 42.5312C123.75 43.1979 123.188 43.8021 122.5 44.3438C121.833 44.8646 121.115 45.2917 120.344 45.625C119.573 45.9375 118.865 46.0938 118.219 46.0938C117.115 46.0938 116.125 45.8229 115.25 45.2812C114.396 44.7188 113.677 44.0104 113.094 43.1562C112.51 42.3021 112.062 41.3646 111.75 40.3438C111.458 39.3021 111.312 38.2917 111.312 37.3125C111.312 36.2708 111.458 35.1562 111.75 33.9688C112.042 32.7812 112.479 31.6875 113.062 30.6875C113.667 29.6875 114.417 28.8542 115.312 28.1875C116.229 27.5208 117.312 27.1875 118.562 27.1875C119.271 27.1875 119.948 27.3125 120.594 27.5625C121.24 27.7917 121.802 28.125 122.281 28.5625C122.76 29 123.146 29.5208 123.438 30.125C123.729 30.7292 123.875 31.4062 123.875 32.1562C123.875 33.1354 123.667 34.0521 123.25 34.9062C122.833 35.7604 122.281 36.5 121.594 37.125C120.906 37.75 120.115 38.2604 119.219 38.6562C118.323 39.0312 117.406 39.2396 116.469 39.2812C116.552 39.8854 116.792 40.3229 117.188 40.5938C117.604 40.8646 118.094 41 118.656 41C119.073 41 119.479 40.8958 119.875 40.6875C120.271 40.4792 120.656 40.25 121.031 40C121.406 39.7292 121.771 39.4896 122.125 39.2812C122.5 39.0729 122.875 38.9688 123.25 38.9688C123.667 38.9688 124.042 39.1042 124.375 39.375C124.708 39.6458 124.875 40 124.875 40.4375ZM119.812 32.7812C119.812 32.5104 119.74 32.2292 119.594 31.9375C119.448 31.6458 119.219 31.5 118.906 31.5C118.448 31.5 118.062 31.625 117.75 31.875C117.438 32.1042 117.177 32.4062 116.969 32.7812C116.76 33.1354 116.594 33.5208 116.469 33.9375C116.365 34.3542 116.302 34.7396 116.281 35.0938C116.573 35.0312 116.917 34.9479 117.312 34.8438C117.729 34.7396 118.115 34.6042 118.469 34.4375C118.844 34.25 119.156 34.0208 119.406 33.75C119.677 33.4792 119.812 33.1562 119.812 32.7812ZM139.219 40.4375C139.219 41.1458 138.99 41.8438 138.531 42.5312C138.094 43.1979 137.531 43.8021 136.844 44.3438C136.177 44.8646 135.458 45.2917 134.688 45.625C133.917 45.9375 133.208 46.0938 132.562 46.0938C131.458 46.0938 130.469 45.8229 129.594 45.2812C128.74 44.7188 128.021 44.0104 127.438 43.1562C126.854 42.3021 126.406 41.3646 126.094 40.3438C125.802 39.3021 125.656 38.2917 125.656 37.3125C125.656 36.2708 125.802 35.1562 126.094 33.9688C126.385 32.7812 126.823 31.6875 127.406 30.6875C128.01 29.6875 128.76 28.8542 129.656 28.1875C130.573 27.5208 131.656 27.1875 132.906 27.1875C133.615 27.1875 134.292 27.3125 134.938 27.5625C135.583 27.7917 136.146 28.125 136.625 28.5625C137.104 29 137.49 29.5208 137.781 30.125C138.073 30.7292 138.219 31.4062 138.219 32.1562C138.219 33.1354 138.01 34.0521 137.594 34.9062C137.177 35.7604 136.625 36.5 135.938 37.125C135.25 37.75 134.458 38.2604 133.562 38.6562C132.667 39.0312 131.75 39.2396 130.812 39.2812C130.896 39.8854 131.135 40.3229 131.531 40.5938C131.948 40.8646 132.438 41 133 41C133.417 41 133.823 40.8958 134.219 40.6875C134.615 40.4792 135 40.25 135.375 40C135.75 39.7292 136.115 39.4896 136.469 39.2812C136.844 39.0729 137.219 38.9688 137.594 38.9688C138.01 38.9688 138.385 39.1042 138.719 39.375C139.052 39.6458 139.219 40 139.219 40.4375ZM134.156 32.7812C134.156 32.5104 134.083 32.2292 133.938 31.9375C133.792 31.6458 133.562 31.5 133.25 31.5C132.792 31.5 132.406 31.625 132.094 31.875C131.781 32.1042 131.521 32.4062 131.312 32.7812C131.104 33.1354 130.938 33.5208 130.812 33.9375C130.708 34.3542 130.646 34.7396 130.625 35.0938C130.917 35.0312 131.26 34.9479 131.656 34.8438C132.073 34.7396 132.458 34.6042 132.812 34.4375C133.188 34.25 133.5 34.0208 133.75 33.75C134.021 33.4792 134.156 33.1562 134.156 32.7812ZM147.75 47.125C146.271 47.125 145.115 46.9271 144.281 46.5312C143.469 46.1562 142.854 45.6146 142.438 44.9062C142.042 44.1979 141.802 43.3438 141.719 42.3438C141.635 41.3438 141.594 40.2292 141.594 39C141.594 38.0208 141.625 37.0417 141.688 36.0625C141.75 35.0625 141.844 34 141.969 32.875C141.677 32.875 141.448 32.8854 141.281 32.9062C141.115 32.9062 140.979 32.9062 140.875 32.9062C140.208 32.9062 139.635 32.7604 139.156 32.4688C138.656 32.1771 138.406 31.7292 138.406 31.125C138.406 30.75 138.552 30.4167 138.844 30.125C139.115 29.8333 139.469 29.5833 139.906 29.375C140.344 29.1667 140.812 29 141.312 28.875C141.833 28.75 142.323 28.6667 142.781 28.625C142.781 28.0417 142.823 27.3958 142.906 26.6875C142.99 25.9792 143.135 25.3229 143.344 24.7188C143.573 24.0938 143.875 23.5729 144.25 23.1562C144.625 22.7396 145.104 22.5312 145.688 22.5312C146.021 22.5312 146.312 22.6354 146.562 22.8438C146.833 23.0312 147.052 23.2812 147.219 23.5938C147.385 23.8854 147.51 24.2188 147.594 24.5938C147.677 24.9688 147.719 25.3333 147.719 25.6875C147.719 26.1042 147.688 26.5312 147.625 26.9688C147.562 27.4062 147.448 27.9479 147.281 28.5938C147.635 28.5521 147.875 28.5312 148 28.5312C148.125 28.5104 148.24 28.5 148.344 28.5C148.698 28.5 149.062 28.5312 149.438 28.5938C149.833 28.6562 150.188 28.7604 150.5 28.9062C150.833 29.0521 151.104 29.25 151.312 29.5C151.521 29.7292 151.625 30.0104 151.625 30.3438C151.625 30.7188 151.469 31.0521 151.156 31.3438C150.865 31.6354 150.49 31.8854 150.031 32.0938C149.573 32.3021 149.083 32.4688 148.562 32.5938C148.042 32.6979 147.552 32.7708 147.094 32.8125C146.969 33.6667 146.875 34.4583 146.812 35.1875C146.771 35.8958 146.719 36.6146 146.656 37.3438C146.615 37.6979 146.573 38.0625 146.531 38.4375C146.51 38.7917 146.5 39.1562 146.5 39.5312C146.5 39.8021 146.51 40.125 146.531 40.5C146.552 40.8542 146.625 41.1979 146.75 41.5312C146.875 41.8646 147.073 42.1562 147.344 42.4062C147.615 42.6354 147.99 42.75 148.469 42.75C148.76 42.75 149.062 42.7292 149.375 42.6875C149.688 42.625 150 42.5938 150.312 42.5938C150.854 42.5938 151.24 42.7812 151.469 43.1562C151.719 43.5312 151.844 44.0104 151.844 44.5938C151.844 45.0312 151.708 45.4167 151.438 45.75C151.188 46.0625 150.865 46.3125 150.469 46.5C150.073 46.7083 149.625 46.8646 149.125 46.9688C148.646 47.0729 148.188 47.125 147.75 47.125ZM173.281 41.5938C173.281 41.9688 173.26 42.4583 173.219 43.0625C173.198 43.6667 173.115 44.2604 172.969 44.8438C172.823 45.4062 172.594 45.8958 172.281 46.3125C171.969 46.7292 171.531 46.9375 170.969 46.9375C170.198 46.9375 169.604 46.6875 169.188 46.1875C168.771 45.6875 168.573 45.0625 168.594 44.3125C167.927 44.8958 167.167 45.3542 166.312 45.6875C165.479 46.0208 164.625 46.1875 163.75 46.1875C163.146 46.1875 162.573 46.0417 162.031 45.75C161.49 45.4583 161.01 45.0833 160.594 44.625C160.177 44.1667 159.844 43.6562 159.594 43.0938C159.344 42.5104 159.219 41.9375 159.219 41.375C159.219 40.375 159.521 39.5 160.125 38.75C160.75 38 161.51 37.3646 162.406 36.8438C163.302 36.3021 164.25 35.875 165.25 35.5625C166.271 35.25 167.177 35.0417 167.969 34.9375C167.969 34.8333 167.969 34.7396 167.969 34.6562C167.99 34.5729 168 34.4792 168 34.375C168 33.7292 167.823 33.2083 167.469 32.8125C167.115 32.4167 166.615 32.2188 165.969 32.2188C165.448 32.2188 165 32.3125 164.625 32.5C164.25 32.6667 163.896 32.8646 163.562 33.0938C163.229 33.3021 162.896 33.5 162.562 33.6875C162.229 33.8542 161.854 33.9375 161.438 33.9375C160.979 33.9375 160.583 33.7917 160.25 33.5C159.938 33.2083 159.781 32.8333 159.781 32.375C159.781 31.6875 159.979 31.0625 160.375 30.5C160.792 29.9375 161.302 29.4688 161.906 29.0938C162.531 28.6979 163.198 28.3958 163.906 28.1875C164.635 27.9583 165.302 27.8438 165.906 27.8438C166.469 27.8438 167.031 27.9167 167.594 28.0625C168.156 28.1875 168.688 28.3958 169.188 28.6875C169.688 28.9583 170.135 29.3021 170.531 29.7188C170.948 30.1146 171.281 30.5833 171.531 31.125C171.906 31.8958 172.208 32.7188 172.438 33.5938C172.667 34.4479 172.844 35.3333 172.969 36.25C173.094 37.1458 173.177 38.0521 173.219 38.9688C173.26 39.8646 173.281 40.7396 173.281 41.5938ZM168.281 40.5938L168.188 38.4688C168.146 38.4688 168.104 38.4688 168.062 38.4688C168.021 38.4479 167.979 38.4375 167.938 38.4375C167.667 38.4375 167.323 38.5104 166.906 38.6562C166.51 38.7812 166.125 38.9688 165.75 39.2188C165.375 39.4479 165.052 39.7083 164.781 40C164.531 40.2917 164.406 40.5938 164.406 40.9062C164.406 41.1979 164.51 41.3958 164.719 41.5C164.927 41.6042 165.167 41.6562 165.438 41.6562C165.896 41.6562 166.385 41.5417 166.906 41.3125C167.427 41.0625 167.885 40.8229 168.281 40.5938ZM182.438 47.125C180.958 47.125 179.802 46.9271 178.969 46.5312C178.156 46.1562 177.542 45.6146 177.125 44.9062C176.729 44.1979 176.49 43.3438 176.406 42.3438C176.323 41.3438 176.281 40.2292 176.281 39C176.281 38.0208 176.312 37.0417 176.375 36.0625C176.438 35.0625 176.531 34 176.656 32.875C176.365 32.875 176.135 32.8854 175.969 32.9062C175.802 32.9062 175.667 32.9062 175.562 32.9062C174.896 32.9062 174.323 32.7604 173.844 32.4688C173.344 32.1771 173.094 31.7292 173.094 31.125C173.094 30.75 173.24 30.4167 173.531 30.125C173.802 29.8333 174.156 29.5833 174.594 29.375C175.031 29.1667 175.5 29 176 28.875C176.521 28.75 177.01 28.6667 177.469 28.625C177.469 28.0417 177.51 27.3958 177.594 26.6875C177.677 25.9792 177.823 25.3229 178.031 24.7188C178.26 24.0938 178.562 23.5729 178.938 23.1562C179.312 22.7396 179.792 22.5312 180.375 22.5312C180.708 22.5312 181 22.6354 181.25 22.8438C181.521 23.0312 181.74 23.2812 181.906 23.5938C182.073 23.8854 182.198 24.2188 182.281 24.5938C182.365 24.9688 182.406 25.3333 182.406 25.6875C182.406 26.1042 182.375 26.5312 182.312 26.9688C182.25 27.4062 182.135 27.9479 181.969 28.5938C182.323 28.5521 182.562 28.5312 182.688 28.5312C182.812 28.5104 182.927 28.5 183.031 28.5C183.385 28.5 183.75 28.5312 184.125 28.5938C184.521 28.6562 184.875 28.7604 185.188 28.9062C185.521 29.0521 185.792 29.25 186 29.5C186.208 29.7292 186.312 30.0104 186.312 30.3438C186.312 30.7188 186.156 31.0521 185.844 31.3438C185.552 31.6354 185.177 31.8854 184.719 32.0938C184.26 32.3021 183.771 32.4688 183.25 32.5938C182.729 32.6979 182.24 32.7708 181.781 32.8125C181.656 33.6667 181.562 34.4583 181.5 35.1875C181.458 35.8958 181.406 36.6146 181.344 37.3438C181.302 37.6979 181.26 38.0625 181.219 38.4375C181.198 38.7917 181.188 39.1562 181.188 39.5312C181.188 39.8021 181.198 40.125 181.219 40.5C181.24 40.8542 181.312 41.1979 181.438 41.5312C181.562 41.8646 181.76 42.1562 182.031 42.4062C182.302 42.6354 182.677 42.75 183.156 42.75C183.448 42.75 183.75 42.7292 184.062 42.6875C184.375 42.625 184.688 42.5938 185 42.5938C185.542 42.5938 185.927 42.7812 186.156 43.1562C186.406 43.5312 186.531 44.0104 186.531 44.5938C186.531 45.0312 186.396 45.4167 186.125 45.75C185.875 46.0625 185.552 46.3125 185.156 46.5C184.76 46.7083 184.312 46.8646 183.812 46.9688C183.333 47.0729 182.875 47.125 182.438 47.125ZM95.2188 89.125C93.7396 89.125 92.5833 88.9271 91.75 88.5312C90.9375 88.1562 90.3229 87.6146 89.9062 86.9062C89.5104 86.1979 89.2708 85.3438 89.1875 84.3438C89.1042 83.3438 89.0625 82.2292 89.0625 81C89.0625 80.0208 89.0938 79.0417 89.1562 78.0625C89.2188 77.0625 89.3125 76 89.4375 74.875C89.1458 74.875 88.9167 74.8854 88.75 74.9062C88.5833 74.9062 88.4479 74.9062 88.3438 74.9062C87.6771 74.9062 87.1042 74.7604 86.625 74.4688C86.125 74.1771 85.875 73.7292 85.875 73.125C85.875 72.75 86.0208 72.4167 86.3125 72.125C86.5833 71.8333 86.9375 71.5833 87.375 71.375C87.8125 71.1667 88.2812 71 88.7812 70.875C89.3021 70.75 89.7917 70.6667 90.25 70.625C90.25 70.0417 90.2917 69.3958 90.375 68.6875C90.4583 67.9792 90.6042 67.3229 90.8125 66.7188C91.0417 66.0938 91.3438 65.5729 91.7188 65.1562C92.0938 64.7396 92.5729 64.5312 93.1562 64.5312C93.4896 64.5312 93.7812 64.6354 94.0312 64.8438C94.3021 65.0312 94.5208 65.2812 94.6875 65.5938C94.8542 65.8854 94.9792 66.2188 95.0625 66.5938C95.1458 66.9688 95.1875 67.3333 95.1875 67.6875C95.1875 68.1042 95.1562 68.5312 95.0938 68.9688C95.0312 69.4062 94.9167 69.9479 94.75 70.5938C95.1042 70.5521 95.3438 70.5312 95.4688 70.5312C95.5938 70.5104 95.7083 70.5 95.8125 70.5C96.1667 70.5 96.5312 70.5312 96.9062 70.5938C97.3021 70.6562 97.6562 70.7604 97.9688 70.9062C98.3021 71.0521 98.5729 71.25 98.7812 71.5C98.9896 71.7292 99.0938 72.0104 99.0938 72.3438C99.0938 72.7188 98.9375 73.0521 98.625 73.3438C98.3333 73.6354 97.9583 73.8854 97.5 74.0938C97.0417 74.3021 96.5521 74.4688 96.0312 74.5938C95.5104 74.6979 95.0208 74.7708 94.5625 74.8125C94.4375 75.6667 94.3438 76.4583 94.2812 77.1875C94.2396 77.8958 94.1875 78.6146 94.125 79.3438C94.0833 79.6979 94.0417 80.0625 94 80.4375C93.9792 80.7917 93.9688 81.1562 93.9688 81.5312C93.9688 81.8021 93.9792 82.125 94 82.5C94.0208 82.8542 94.0938 83.1979 94.2188 83.5312C94.3438 83.8646 94.5417 84.1562 94.8125 84.4062C95.0833 84.6354 95.4583 84.75 95.9375 84.75C96.2292 84.75 96.5312 84.7292 96.8438 84.6875C97.1562 84.625 97.4688 84.5938 97.7812 84.5938C98.3229 84.5938 98.7083 84.7812 98.9375 85.1562C99.1875 85.5312 99.3125 86.0104 99.3125 86.5938C99.3125 87.0312 99.1771 87.4167 98.9062 87.75C98.6562 88.0625 98.3333 88.3125 97.9375 88.5C97.5417 88.7083 97.0938 88.8646 96.5938 88.9688C96.1146 89.0729 95.6562 89.125 95.2188 89.125ZM114.125 79.9062C114.125 80.2604 114.115 80.7917 114.094 81.5C114.094 82.1875 114.062 82.9167 114 83.6875C113.958 84.4375 113.896 85.1562 113.812 85.8438C113.729 86.5104 113.625 87 113.5 87.3125C113.333 87.7083 113.115 88.0521 112.844 88.3438C112.573 88.6354 112.208 88.7812 111.75 88.7812C111.042 88.7812 110.531 88.5 110.219 87.9375C109.906 87.375 109.698 86.6771 109.594 85.8438C109.49 85.0104 109.448 84.1042 109.469 83.125C109.49 82.1458 109.479 81.2396 109.438 80.4062C109.396 79.5729 109.281 78.875 109.094 78.3125C108.906 77.75 108.562 77.4688 108.062 77.4688C107.375 77.4688 106.844 77.5833 106.469 77.8125C106.115 78.0208 105.854 78.3021 105.688 78.6562C105.542 79.0104 105.448 79.4167 105.406 79.875C105.385 80.3333 105.354 80.8125 105.312 81.3125C105.271 81.7917 105.24 82.4375 105.219 83.25C105.198 84.0625 105.104 84.8646 104.938 85.6562C104.771 86.4479 104.49 87.1354 104.094 87.7188C103.719 88.2812 103.156 88.5625 102.406 88.5625C101.948 88.5625 101.573 88.3854 101.281 88.0312C101.01 87.6771 100.792 87.2188 100.625 86.6562C100.458 86.0938 100.333 85.4688 100.25 84.7812C100.188 84.0938 100.146 83.4271 100.125 82.7812C100.125 82.1146 100.125 81.5104 100.125 80.9688C100.146 80.4271 100.156 80.0208 100.156 79.75C100.156 79.3333 100.167 78.6458 100.188 77.6875C100.229 76.7292 100.302 75.6667 100.406 74.5C100.51 73.3125 100.646 72.0938 100.812 70.8438C100.979 69.5938 101.198 68.4583 101.469 67.4375C101.74 66.3958 102.062 65.5521 102.438 64.9062C102.833 64.2604 103.292 63.9479 103.812 63.9688C104.146 63.9896 104.427 64.1354 104.656 64.4062C104.906 64.6771 105.104 65.0312 105.25 65.4688C105.417 65.8854 105.552 66.3438 105.656 66.8438C105.76 67.3438 105.833 67.8438 105.875 68.3438C105.938 68.8229 105.969 69.2708 105.969 69.6875C105.99 70.1042 106 70.4271 106 70.6562C106 71.1979 105.99 71.7396 105.969 72.2812C105.948 72.8229 105.917 73.3646 105.875 73.9062C106.354 73.2604 106.99 72.7292 107.781 72.3125C108.594 71.8958 109.406 71.6875 110.219 71.6875C111.26 71.6875 112.042 71.9792 112.562 72.5625C113.104 73.125 113.49 73.8333 113.719 74.6875C113.948 75.5208 114.073 76.4167 114.094 77.375C114.115 78.3125 114.125 79.1562 114.125 79.9062ZM129.438 82.4375C129.438 83.1458 129.208 83.8438 128.75 84.5312C128.312 85.1979 127.75 85.8021 127.062 86.3438C126.396 86.8646 125.677 87.2917 124.906 87.625C124.135 87.9375 123.427 88.0938 122.781 88.0938C121.677 88.0938 120.688 87.8229 119.812 87.2812C118.958 86.7188 118.24 86.0104 117.656 85.1562C117.073 84.3021 116.625 83.3646 116.312 82.3438C116.021 81.3021 115.875 80.2917 115.875 79.3125C115.875 78.2708 116.021 77.1562 116.312 75.9688C116.604 74.7812 117.042 73.6875 117.625 72.6875C118.229 71.6875 118.979 70.8542 119.875 70.1875C120.792 69.5208 121.875 69.1875 123.125 69.1875C123.833 69.1875 124.51 69.3125 125.156 69.5625C125.802 69.7917 126.365 70.125 126.844 70.5625C127.323 71 127.708 71.5208 128 72.125C128.292 72.7292 128.438 73.4062 128.438 74.1562C128.438 75.1354 128.229 76.0521 127.812 76.9062C127.396 77.7604 126.844 78.5 126.156 79.125C125.469 79.75 124.677 80.2604 123.781 80.6562C122.885 81.0312 121.969 81.2396 121.031 81.2812C121.115 81.8854 121.354 82.3229 121.75 82.5938C122.167 82.8646 122.656 83 123.219 83C123.635 83 124.042 82.8958 124.438 82.6875C124.833 82.4792 125.219 82.25 125.594 82C125.969 81.7292 126.333 81.4896 126.688 81.2812C127.062 81.0729 127.438 80.9688 127.812 80.9688C128.229 80.9688 128.604 81.1042 128.938 81.375C129.271 81.6458 129.438 82 129.438 82.4375ZM124.375 74.7812C124.375 74.5104 124.302 74.2292 124.156 73.9375C124.01 73.6458 123.781 73.5 123.469 73.5C123.01 73.5 122.625 73.625 122.312 73.875C122 74.1042 121.74 74.4062 121.531 74.7812C121.323 75.1354 121.156 75.5208 121.031 75.9375C120.927 76.3542 120.865 76.7396 120.844 77.0938C121.135 77.0312 121.479 76.9479 121.875 76.8438C122.292 76.7396 122.677 76.6042 123.031 76.4375C123.406 76.25 123.719 76.0208 123.969 75.75C124.24 75.4792 124.375 75.1562 124.375 74.7812ZM144.156 88.9062C143.094 88.9062 142.167 88.625 141.375 88.0625C140.583 87.5 139.917 86.7812 139.375 85.9062C138.833 85.0312 138.427 84.0625 138.156 83C137.885 81.9167 137.75 80.8542 137.75 79.8125C137.75 78.7083 137.885 77.5729 138.156 76.4062C138.427 75.2188 138.844 74.1458 139.406 73.1875C139.969 72.2083 140.688 71.4167 141.562 70.8125C142.438 70.1875 143.479 69.875 144.688 69.875C145.854 69.875 146.844 70.1979 147.656 70.8438C148.49 71.4688 149.156 72.2604 149.656 73.2188C150.156 74.1562 150.51 75.1875 150.719 76.3125C150.927 77.4375 151 78.5 150.938 79.5C150.875 80.6042 150.698 81.7188 150.406 82.8438C150.135 83.9688 149.729 84.9792 149.188 85.875C148.646 86.7708 147.958 87.5 147.125 88.0625C146.292 88.625 145.302 88.9062 144.156 88.9062ZM144.469 74.7812C144.156 74.7812 143.875 74.9479 143.625 75.2812C143.396 75.6146 143.198 76.0208 143.031 76.5C142.885 76.9792 142.771 77.4896 142.688 78.0312C142.604 78.5521 142.562 79.0104 142.562 79.4062C142.562 79.9062 142.604 80.4479 142.688 81.0312C142.792 81.6146 142.927 82.1562 143.094 82.6562C143.26 83.1354 143.458 83.5417 143.688 83.875C143.938 84.1875 144.219 84.3438 144.531 84.3438C144.865 84.3438 145.146 84.1875 145.375 83.875C145.625 83.5625 145.823 83.1667 145.969 82.6875C146.115 82.2083 146.219 81.6875 146.281 81.125C146.344 80.5417 146.375 80 146.375 79.5C146.375 79.0417 146.333 78.5417 146.25 78C146.167 77.4375 146.042 76.9167 145.875 76.4375C145.729 75.9583 145.531 75.5625 145.281 75.25C145.052 74.9375 144.781 74.7812 144.469 74.7812ZM165.625 69.3125C165.625 69.7083 165.583 70.0938 165.5 70.4688C165.438 70.8229 165.312 71.1354 165.125 71.4062C164.938 71.6771 164.688 71.8958 164.375 72.0625C164.062 72.2083 163.677 72.2812 163.219 72.2812C162.698 72.2812 162.312 72.1771 162.062 71.9688C161.812 71.7604 161.635 71.5104 161.531 71.2188C161.448 70.9062 161.406 70.5729 161.406 70.2188C161.406 69.8646 161.385 69.5417 161.344 69.25C161.323 68.9375 161.25 68.6771 161.125 68.4688C161 68.2604 160.771 68.1562 160.438 68.1562C160.125 68.1562 159.865 68.3958 159.656 68.875C159.469 69.3542 159.312 69.9062 159.188 70.5312C159.062 71.1562 158.979 71.7708 158.938 72.375C158.896 72.9583 158.875 73.3542 158.875 73.5625C159.146 73.5208 159.406 73.4896 159.656 73.4688C159.906 73.4271 160.177 73.4062 160.469 73.4062C160.76 73.4062 161.062 73.4375 161.375 73.5C161.688 73.5625 161.979 73.6667 162.25 73.8125C162.521 73.9375 162.74 74.125 162.906 74.375C163.073 74.6042 163.156 74.8958 163.156 75.25C163.156 75.625 162.99 75.9583 162.656 76.25C162.344 76.5417 161.958 76.7917 161.5 77C161.062 77.1875 160.615 77.3438 160.156 77.4688C159.698 77.5938 159.333 77.6771 159.062 77.7188C159.125 79.1562 159.156 80.6042 159.156 82.0625C159.156 83.4375 159.125 84.7917 159.062 86.125C159.021 86.7708 158.792 87.3021 158.375 87.7188C157.979 88.1354 157.458 88.3438 156.812 88.3438C156.458 88.3438 156.156 88.2708 155.906 88.125C155.656 88 155.448 87.8229 155.281 87.5938C155.115 87.3646 154.979 87.1042 154.875 86.8125C154.792 86.5208 154.74 86.2188 154.719 85.9062C154.615 84.6562 154.531 83.4062 154.469 82.1562C154.406 80.8854 154.385 79.6146 154.406 78.3438C154.26 78.3646 154.115 78.375 153.969 78.375C153.844 78.375 153.708 78.375 153.562 78.375C153.312 78.375 153.01 78.3438 152.656 78.2812C152.302 78.2188 151.958 78.1146 151.625 77.9688C151.312 77.8021 151.042 77.6042 150.812 77.375C150.583 77.1458 150.469 76.8542 150.469 76.5C150.469 76.0417 150.625 75.6562 150.938 75.3438C151.229 75.0312 151.583 74.7812 152 74.5938C152.438 74.3854 152.885 74.2396 153.344 74.1562C153.823 74.0729 154.24 74.0104 154.594 73.9688V73.4688C154.594 72.4479 154.688 71.3542 154.875 70.1875C155.062 69.0208 155.396 67.9375 155.875 66.9375C156.354 65.9375 157.01 65.1146 157.844 64.4688C158.677 63.8021 159.74 63.4688 161.031 63.4688C161.844 63.4688 162.542 63.6458 163.125 64C163.708 64.3333 164.188 64.7812 164.562 65.3438C164.938 65.8854 165.208 66.5104 165.375 67.2188C165.542 67.9062 165.625 68.6042 165.625 69.3125ZM177.562 69.3125C177.562 69.7083 177.521 70.0938 177.438 70.4688C177.375 70.8229 177.25 71.1354 177.062 71.4062C176.875 71.6771 176.625 71.8958 176.312 72.0625C176 72.2083 175.615 72.2812 175.156 72.2812C174.635 72.2812 174.25 72.1771 174 71.9688C173.75 71.7604 173.573 71.5104 173.469 71.2188C173.385 70.9062 173.344 70.5729 173.344 70.2188C173.344 69.8646 173.323 69.5417 173.281 69.25C173.26 68.9375 173.188 68.6771 173.062 68.4688C172.938 68.2604 172.708 68.1562 172.375 68.1562C172.062 68.1562 171.802 68.3958 171.594 68.875C171.406 69.3542 171.25 69.9062 171.125 70.5312C171 71.1562 170.917 71.7708 170.875 72.375C170.833 72.9583 170.812 73.3542 170.812 73.5625C171.083 73.5208 171.344 73.4896 171.594 73.4688C171.844 73.4271 172.115 73.4062 172.406 73.4062C172.698 73.4062 173 73.4375 173.312 73.5C173.625 73.5625 173.917 73.6667 174.188 73.8125C174.458 73.9375 174.677 74.125 174.844 74.375C175.01 74.6042 175.094 74.8958 175.094 75.25C175.094 75.625 174.927 75.9583 174.594 76.25C174.281 76.5417 173.896 76.7917 173.438 77C173 77.1875 172.552 77.3438 172.094 77.4688C171.635 77.5938 171.271 77.6771 171 77.7188C171.062 79.1562 171.094 80.6042 171.094 82.0625C171.094 83.4375 171.062 84.7917 171 86.125C170.958 86.7708 170.729 87.3021 170.312 87.7188C169.917 88.1354 169.396 88.3438 168.75 88.3438C168.396 88.3438 168.094 88.2708 167.844 88.125C167.594 88 167.385 87.8229 167.219 87.5938C167.052 87.3646 166.917 87.1042 166.812 86.8125C166.729 86.5208 166.677 86.2188 166.656 85.9062C166.552 84.6562 166.469 83.4062 166.406 82.1562C166.344 80.8854 166.323 79.6146 166.344 78.3438C166.198 78.3646 166.052 78.375 165.906 78.375C165.781 78.375 165.646 78.375 165.5 78.375C165.25 78.375 164.948 78.3438 164.594 78.2812C164.24 78.2188 163.896 78.1146 163.562 77.9688C163.25 77.8021 162.979 77.6042 162.75 77.375C162.521 77.1458 162.406 76.8542 162.406 76.5C162.406 76.0417 162.562 75.6562 162.875 75.3438C163.167 75.0312 163.521 74.7812 163.938 74.5938C164.375 74.3854 164.823 74.2396 165.281 74.1562C165.76 74.0729 166.177 74.0104 166.531 73.9688V73.4688C166.531 72.4479 166.625 71.3542 166.812 70.1875C167 69.0208 167.333 67.9375 167.812 66.9375C168.292 65.9375 168.948 65.1146 169.781 64.4688C170.615 63.8021 171.677 63.4688 172.969 63.4688C173.781 63.4688 174.479 63.6458 175.062 64C175.646 64.3333 176.125 64.7812 176.5 65.3438C176.875 65.8854 177.146 66.5104 177.312 67.2188C177.479 67.9062 177.562 68.6042 177.562 69.3125ZM181.562 66.1875C181.562 66.4792 181.479 66.7396 181.312 66.9688C181.167 67.1979 180.969 67.4062 180.719 67.5938C180.469 67.7604 180.198 67.8958 179.906 68C179.615 68.0833 179.344 68.125 179.094 68.125C178.677 68.125 178.312 68.0208 178 67.8125C177.688 67.6042 177.531 67.2812 177.531 66.8438C177.531 66.5312 177.604 66.2604 177.75 66.0312C177.917 65.7812 178.115 65.5833 178.344 65.4375C178.573 65.2708 178.833 65.1458 179.125 65.0625C179.417 64.9792 179.698 64.9375 179.969 64.9375C180.365 64.9375 180.729 65.0312 181.062 65.2188C181.396 65.4062 181.562 65.7292 181.562 66.1875ZM181.812 76.8125C181.812 77.1042 181.812 77.4167 181.812 77.75C181.812 78.0625 181.802 78.3646 181.781 78.6562C181.76 79.0104 181.75 79.4896 181.75 80.0938C181.75 80.6771 181.729 81.3125 181.688 82C181.646 82.6875 181.573 83.3854 181.469 84.0938C181.385 84.8021 181.24 85.4479 181.031 86.0312C180.823 86.6146 180.542 87.0938 180.188 87.4688C179.854 87.8229 179.427 88.0104 178.906 88.0312C178.51 88.0521 178.177 87.8958 177.906 87.5625C177.635 87.2292 177.406 86.8021 177.219 86.2812C177.052 85.7396 176.927 85.1458 176.844 84.5C176.76 83.8333 176.698 83.1979 176.656 82.5938C176.615 81.9688 176.594 81.3958 176.594 80.875C176.594 80.3542 176.594 79.9688 176.594 79.7188C176.594 79.3854 176.594 78.9167 176.594 78.3125C176.594 77.6875 176.615 77.0208 176.656 76.3125C176.698 75.6042 176.771 74.8854 176.875 74.1562C177 73.4271 177.167 72.7604 177.375 72.1562C177.604 71.5521 177.896 71.0625 178.25 70.6875C178.604 70.3125 179.052 70.125 179.594 70.125C180.156 70.125 180.583 70.4062 180.875 70.9688C181.167 71.5312 181.385 72.1875 181.531 72.9375C181.677 73.6875 181.76 74.4375 181.781 75.1875C181.802 75.9167 181.812 76.4583 181.812 76.8125ZM195.625 76C195.625 76.1042 195.615 76.2188 195.594 76.3438C195.573 76.4479 195.542 76.5521 195.5 76.6562C195.312 77.1354 195.021 77.5417 194.625 77.875C194.229 78.1875 193.76 78.3438 193.219 78.3438C192.406 78.3438 191.854 77.9375 191.562 77.125C191.521 77.0208 191.5 76.9062 191.5 76.7812C191.5 76.6354 191.49 76.4896 191.469 76.3438V75.4375C191.427 75.1458 191.354 74.9167 191.25 74.75C191.146 74.5833 190.969 74.5 190.719 74.5C190.365 74.5 190.021 74.7292 189.688 75.1875C189.375 75.625 189.094 76.1562 188.844 76.7812C188.615 77.3854 188.427 78.0104 188.281 78.6562C188.135 79.3021 188.062 79.8229 188.062 80.2188C188.062 80.5312 188.083 80.9167 188.125 81.375C188.167 81.8125 188.25 82.2396 188.375 82.6562C188.5 83.0729 188.667 83.4375 188.875 83.75C189.104 84.0417 189.396 84.1875 189.75 84.1875C190.104 84.1875 190.427 84.0833 190.719 83.875C191.031 83.6458 191.333 83.3854 191.625 83.0938C191.896 82.8438 192.188 82.5833 192.5 82.3125C192.833 82.0417 193.208 81.9062 193.625 81.9062C194.146 81.9062 194.552 82.0938 194.844 82.4688C195.156 82.8438 195.312 83.2708 195.312 83.75C195.312 84.4583 195.125 85.125 194.75 85.75C194.375 86.3542 193.906 86.8854 193.344 87.3438C192.781 87.7812 192.156 88.125 191.469 88.375C190.781 88.6458 190.125 88.7812 189.5 88.7812C188.375 88.7812 187.417 88.5 186.625 87.9375C185.854 87.375 185.229 86.6667 184.75 85.8125C184.271 84.9375 183.927 83.9896 183.719 82.9688C183.51 81.9479 183.406 80.9792 183.406 80.0625C183.406 79 183.552 77.8542 183.844 76.625C184.135 75.375 184.583 74.2188 185.188 73.1562C185.792 72.0938 186.562 71.2083 187.5 70.5C188.458 69.7917 189.594 69.4375 190.906 69.4375C191.719 69.4375 192.417 69.6146 193 69.9688C193.604 70.3229 194.094 70.7917 194.469 71.375C194.865 71.9375 195.156 72.5729 195.344 73.2812C195.552 73.9896 195.656 74.6875 195.656 75.375C195.656 75.4792 195.656 75.5833 195.656 75.6875C195.656 75.7917 195.646 75.8958 195.625 76ZM210.469 82.4375C210.469 83.1458 210.24 83.8438 209.781 84.5312C209.344 85.1979 208.781 85.8021 208.094 86.3438C207.427 86.8646 206.708 87.2917 205.938 87.625C205.167 87.9375 204.458 88.0938 203.812 88.0938C202.708 88.0938 201.719 87.8229 200.844 87.2812C199.99 86.7188 199.271 86.0104 198.688 85.1562C198.104 84.3021 197.656 83.3646 197.344 82.3438C197.052 81.3021 196.906 80.2917 196.906 79.3125C196.906 78.2708 197.052 77.1562 197.344 75.9688C197.635 74.7812 198.073 73.6875 198.656 72.6875C199.26 71.6875 200.01 70.8542 200.906 70.1875C201.823 69.5208 202.906 69.1875 204.156 69.1875C204.865 69.1875 205.542 69.3125 206.188 69.5625C206.833 69.7917 207.396 70.125 207.875 70.5625C208.354 71 208.74 71.5208 209.031 72.125C209.323 72.7292 209.469 73.4062 209.469 74.1562C209.469 75.1354 209.26 76.0521 208.844 76.9062C208.427 77.7604 207.875 78.5 207.188 79.125C206.5 79.75 205.708 80.2604 204.812 80.6562C203.917 81.0312 203 81.2396 202.062 81.2812C202.146 81.8854 202.385 82.3229 202.781 82.5938C203.198 82.8646 203.688 83 204.25 83C204.667 83 205.073 82.8958 205.469 82.6875C205.865 82.4792 206.25 82.25 206.625 82C207 81.7292 207.365 81.4896 207.719 81.2812C208.094 81.0729 208.469 80.9688 208.844 80.9688C209.26 80.9688 209.635 81.1042 209.969 81.375C210.302 81.6458 210.469 82 210.469 82.4375ZM205.406 74.7812C205.406 74.5104 205.333 74.2292 205.188 73.9375C205.042 73.6458 204.812 73.5 204.5 73.5C204.042 73.5 203.656 73.625 203.344 73.875C203.031 74.1042 202.771 74.4062 202.562 74.7812C202.354 75.1354 202.188 75.5208 202.062 75.9375C201.958 76.3542 201.896 76.7396 201.875 77.0938C202.167 77.0312 202.51 76.9479 202.906 76.8438C203.323 76.7396 203.708 76.6042 204.062 76.4375C204.438 76.25 204.75 76.0208 205 75.75C205.271 75.4792 205.406 75.1562 205.406 74.7812Z" fill="#FC8854"/>
<path d="M63.8242 119.555C63.8242 119.932 63.7917 120.362 63.7266 120.844C63.6745 121.312 63.5833 121.794 63.4531 122.289C63.3359 122.784 63.1732 123.266 62.9648 123.734C62.7695 124.203 62.5221 124.626 62.2227 125.004C61.9362 125.368 61.5977 125.661 61.207 125.883C60.8294 126.104 60.3867 126.215 59.8789 126.215C59.3451 126.215 58.8568 126.091 58.4141 125.844C57.9844 125.596 57.6133 125.258 57.3008 124.828C57.2617 125.18 57.1185 125.492 56.8711 125.766C56.6237 126.026 56.3112 126.156 55.9336 126.156C55.7122 126.156 55.5234 126.046 55.3672 125.824C55.224 125.603 55.1068 125.323 55.0156 124.984C54.9245 124.633 54.8529 124.249 54.8008 123.832C54.7617 123.415 54.7357 123.012 54.7227 122.621C54.7096 122.23 54.7031 121.879 54.7031 121.566C54.7031 121.254 54.7031 121.033 54.7031 120.902C54.7031 120.46 54.7031 120.017 54.7031 119.574C54.7161 119.132 54.7292 118.682 54.7422 118.227C54.7422 118.005 54.7357 117.673 54.7227 117.23C54.7227 116.788 54.7292 116.299 54.7422 115.766C54.7552 115.219 54.7812 114.665 54.8203 114.105C54.8724 113.533 54.957 113.012 55.0742 112.543C55.1914 112.074 55.3542 111.69 55.5625 111.391C55.7708 111.091 56.0378 110.935 56.3633 110.922C56.6237 110.922 56.8451 111.013 57.0273 111.195C57.2096 111.378 57.3594 111.618 57.4766 111.918C57.6068 112.217 57.7044 112.556 57.7695 112.934C57.8477 113.298 57.8997 113.669 57.9258 114.047C57.9648 114.411 57.9844 114.763 57.9844 115.102C57.9974 115.427 58.0039 115.694 58.0039 115.902C58.0039 115.941 57.9974 116.033 57.9844 116.176C57.9844 116.306 57.9844 116.449 57.9844 116.605C57.9844 116.762 57.9844 116.905 57.9844 117.035C57.9844 117.152 57.9844 117.217 57.9844 117.23C58.1016 116.983 58.2708 116.742 58.4922 116.508C58.7135 116.273 58.9609 116.065 59.2344 115.883C59.5078 115.701 59.7943 115.551 60.0938 115.434C60.3932 115.316 60.6797 115.258 60.9531 115.258C61.5 115.258 61.9557 115.401 62.3203 115.688C62.6979 115.961 62.9974 116.312 63.2188 116.742C63.4401 117.172 63.5964 117.641 63.6875 118.148C63.7786 118.643 63.8242 119.112 63.8242 119.555ZM60.9531 120.141C60.9531 119.984 60.9401 119.815 60.9141 119.633C60.901 119.451 60.8555 119.281 60.7773 119.125C60.7122 118.969 60.6146 118.839 60.4844 118.734C60.3672 118.63 60.2109 118.578 60.0156 118.578C59.8073 118.578 59.599 118.624 59.3906 118.715C59.1953 118.806 59.0065 118.923 58.8242 119.066C58.6419 119.21 58.4727 119.366 58.3164 119.535C58.1602 119.691 58.0234 119.848 57.9062 120.004L57.7109 121.742C57.9193 122.042 58.1732 122.283 58.4727 122.465C58.7721 122.634 59.1107 122.719 59.4883 122.719C59.7747 122.719 60.0091 122.628 60.1914 122.445C60.3867 122.263 60.5365 122.042 60.6406 121.781C60.7578 121.508 60.8359 121.221 60.875 120.922C60.9271 120.622 60.9531 120.362 60.9531 120.141ZM69.2539 131.684C68.9414 131.684 68.5833 131.632 68.1797 131.527C67.7891 131.436 67.418 131.299 67.0664 131.117C66.7148 130.935 66.4154 130.714 66.168 130.453C65.9336 130.193 65.8164 129.893 65.8164 129.555C65.8164 129.424 65.849 129.294 65.9141 129.164C65.9792 129.034 66.0638 128.917 66.168 128.812C66.2852 128.721 66.4089 128.643 66.5391 128.578C66.6693 128.526 66.806 128.5 66.9492 128.5C67.1055 128.5 67.2552 128.52 67.3984 128.559C67.5547 128.611 67.7109 128.669 67.8672 128.734C68.0365 128.799 68.1992 128.858 68.3555 128.91C68.5247 128.962 68.7005 128.988 68.8828 128.988C69.2083 128.988 69.4883 128.878 69.7227 128.656C69.9701 128.435 70.1784 128.142 70.3477 127.777C70.5169 127.426 70.6536 127.029 70.7578 126.586C70.862 126.156 70.9401 125.727 70.9922 125.297C71.0573 124.867 71.1029 124.464 71.1289 124.086C71.1549 123.708 71.1745 123.402 71.1875 123.168C70.7318 123.858 70.276 124.392 69.8203 124.77C69.3776 125.134 68.8307 125.316 68.1797 125.316C67.6849 125.316 67.2487 125.212 66.8711 125.004C66.5065 124.796 66.194 124.522 65.9336 124.184C65.6732 123.845 65.4583 123.461 65.2891 123.031C65.1198 122.589 64.9896 122.133 64.8984 121.664C64.8203 121.195 64.7682 120.74 64.7422 120.297C64.7161 119.841 64.7161 119.424 64.7422 119.047C64.7552 118.76 64.7878 118.389 64.8398 117.934C64.9049 117.465 65.0026 117.009 65.1328 116.566C65.263 116.124 65.4453 115.753 65.6797 115.453C65.9141 115.141 66.2201 114.997 66.5977 115.023C66.8451 115.036 67.0469 115.147 67.2031 115.355C67.3594 115.551 67.4831 115.798 67.5742 116.098C67.6784 116.397 67.75 116.729 67.7891 117.094C67.8411 117.445 67.8737 117.797 67.8867 118.148C67.8997 118.5 67.8997 118.826 67.8867 119.125C67.8867 119.411 67.8867 119.633 67.8867 119.789C67.8867 120.01 67.8932 120.232 67.9062 120.453C67.9193 120.674 67.9648 120.876 68.043 121.059C68.1211 121.228 68.2383 121.365 68.3945 121.469C68.5638 121.573 68.7982 121.625 69.0977 121.625C69.4362 121.625 69.7031 121.54 69.8984 121.371C70.1068 121.202 70.2565 120.993 70.3477 120.746C70.4518 120.486 70.5169 120.212 70.543 119.926C70.569 119.626 70.582 119.346 70.582 119.086C70.582 118.904 70.582 118.682 70.582 118.422C70.582 118.161 70.582 117.888 70.582 117.602C70.5951 117.315 70.6211 117.035 70.6602 116.762C70.7122 116.475 70.7839 116.221 70.875 116C70.9792 115.766 71.1094 115.577 71.2656 115.434C71.4349 115.29 71.6497 115.219 71.9102 115.219C72.2357 115.219 72.5156 115.349 72.75 115.609C72.9844 115.857 73.1797 116.189 73.3359 116.605C73.5052 117.009 73.6354 117.458 73.7266 117.953C73.8307 118.448 73.9089 118.943 73.9609 119.438C74.013 119.919 74.0456 120.368 74.0586 120.785C74.0846 121.189 74.0977 121.508 74.0977 121.742C74.0977 122.289 74.0781 122.914 74.0391 123.617C74 124.307 73.9219 125.023 73.8047 125.766C73.7005 126.495 73.5378 127.211 73.3164 127.914C73.0951 128.63 72.8021 129.268 72.4375 129.828C72.0859 130.388 71.6497 130.837 71.1289 131.176C70.6081 131.514 69.9831 131.684 69.2539 131.684ZM88.5898 122.934C88.5898 123.181 88.5247 123.422 88.3945 123.656C88.2643 123.878 87.9583 124.138 87.4766 124.438C86.9948 124.737 86.4609 125.023 85.875 125.297C85.2891 125.557 84.7227 125.785 84.1758 125.98C83.6289 126.163 83.2253 126.254 82.9648 126.254C82.7826 126.254 82.5677 126.208 82.3203 126.117C82.0729 126.039 81.8255 125.935 81.5781 125.805C81.3307 125.674 81.1029 125.525 80.8945 125.355C80.6992 125.186 80.556 125.023 80.4648 124.867C80.4128 124.776 80.3607 124.594 80.3086 124.32C80.2695 124.047 80.2305 123.728 80.1914 123.363C80.1654 122.999 80.1393 122.615 80.1133 122.211C80.0872 121.794 80.0612 121.404 80.0352 121.039C80.0221 120.661 80.0091 120.329 79.9961 120.043C79.9961 119.757 79.9961 119.548 79.9961 119.418C79.9961 118.936 80.0091 118.383 80.0352 117.758C80.0742 117.133 80.1393 116.508 80.2305 115.883C80.3216 115.245 80.4518 114.639 80.6211 114.066C80.8034 113.48 81.0443 112.986 81.3438 112.582C81.4349 112.465 81.6172 112.341 81.8906 112.211C82.1641 112.081 82.4831 111.957 82.8477 111.84C83.2253 111.723 83.6289 111.612 84.0586 111.508C84.4883 111.404 84.8984 111.319 85.2891 111.254C85.6927 111.176 86.0573 111.117 86.3828 111.078C86.7083 111.026 86.9557 111 87.125 111C87.3203 111 87.5026 111.046 87.6719 111.137C87.8542 111.215 88.0039 111.326 88.1211 111.469C88.2513 111.612 88.349 111.775 88.4141 111.957C88.4922 112.126 88.5312 112.309 88.5312 112.504C88.5312 112.673 88.5052 112.816 88.4531 112.934C88.4141 113.051 88.349 113.181 88.2578 113.324C88.1276 113.493 87.8542 113.695 87.4375 113.93C87.0208 114.164 86.5651 114.398 86.0703 114.633C85.5885 114.854 85.1198 115.056 84.6641 115.238C84.2214 115.421 83.9089 115.551 83.7266 115.629C83.6745 115.928 83.6159 116.234 83.5508 116.547C83.4987 116.846 83.4596 117.152 83.4336 117.465C83.8372 117.257 84.293 117.061 84.8008 116.879C85.3086 116.697 85.7904 116.605 86.2461 116.605C87.1706 116.605 87.6328 117.061 87.6328 117.973C87.6328 118.194 87.5872 118.389 87.4961 118.559C87.418 118.728 87.3073 118.878 87.1641 119.008C87.0339 119.138 86.8776 119.255 86.6953 119.359C86.526 119.451 86.3568 119.542 86.1875 119.633C85.7708 119.854 85.3346 120.049 84.8789 120.219C84.4232 120.375 83.9674 120.531 83.5117 120.688C83.4857 120.792 83.4596 120.909 83.4336 121.039C83.4076 121.156 83.3945 121.273 83.3945 121.391C83.3945 121.573 83.4076 121.755 83.4336 121.938C83.4596 122.12 83.4857 122.302 83.5117 122.484C83.668 122.432 83.9154 122.348 84.2539 122.23C84.6055 122.113 84.9701 121.996 85.3477 121.879C85.7253 121.762 86.0898 121.664 86.4414 121.586C86.793 121.495 87.0534 121.449 87.2227 121.449C87.418 121.449 87.6003 121.495 87.7695 121.586C87.9388 121.664 88.082 121.775 88.1992 121.918C88.3164 122.048 88.4076 122.204 88.4727 122.387C88.5508 122.569 88.5898 122.751 88.5898 122.934ZM97.7109 115.922C97.7109 116.13 97.6719 116.352 97.5938 116.586C97.5156 116.807 97.418 117.035 97.3008 117.27C97.1836 117.504 97.0599 117.732 96.9297 117.953C96.7995 118.161 96.6823 118.357 96.5781 118.539C96.3177 118.956 96.0573 119.379 95.7969 119.809C95.5495 120.238 95.2956 120.661 95.0352 121.078C95.1523 121.26 95.3151 121.514 95.5234 121.84C95.7318 122.165 95.9336 122.51 96.1289 122.875C96.3372 123.227 96.513 123.578 96.6562 123.93C96.7995 124.281 96.8711 124.581 96.8711 124.828C96.8711 125.062 96.7799 125.29 96.5977 125.512C96.4154 125.733 96.194 125.844 95.9336 125.844C95.6602 125.844 95.3802 125.746 95.0938 125.551C94.8203 125.355 94.5469 125.128 94.2734 124.867C94.013 124.594 93.7721 124.314 93.5508 124.027C93.3294 123.728 93.1406 123.48 92.9844 123.285C92.8151 123.467 92.5938 123.715 92.3203 124.027C92.0599 124.34 91.7734 124.646 91.4609 124.945C91.1615 125.245 90.862 125.505 90.5625 125.727C90.263 125.935 89.9961 126.039 89.7617 126.039C89.4883 126.039 89.2734 125.941 89.1172 125.746C88.9609 125.551 88.8828 125.323 88.8828 125.062C88.8828 124.802 88.9674 124.47 89.1367 124.066C89.319 123.663 89.5273 123.246 89.7617 122.816C90.0091 122.387 90.25 121.977 90.4844 121.586C90.7318 121.195 90.9206 120.889 91.0508 120.668C90.9206 120.434 90.7578 120.128 90.5625 119.75C90.3672 119.359 90.1784 118.956 89.9961 118.539C89.8268 118.109 89.6771 117.693 89.5469 117.289C89.4297 116.872 89.3711 116.527 89.3711 116.254C89.3711 115.954 89.4622 115.714 89.6445 115.531C89.8268 115.349 90.0677 115.258 90.3672 115.258C90.6927 115.258 90.9987 115.388 91.2852 115.648C91.5716 115.896 91.8385 116.202 92.0859 116.566C92.3333 116.918 92.5482 117.289 92.7305 117.68C92.9258 118.057 93.082 118.37 93.1992 118.617C93.3555 118.383 93.5703 118.064 93.8438 117.66C94.1302 117.257 94.4492 116.859 94.8008 116.469C95.1523 116.078 95.5169 115.74 95.8945 115.453C96.2721 115.167 96.6302 115.023 96.9688 115.023C97.1901 115.023 97.3659 115.121 97.4961 115.316C97.6393 115.499 97.7109 115.701 97.7109 115.922ZM102.848 126.703C101.923 126.703 101.201 126.579 100.68 126.332C100.172 126.098 99.7878 125.759 99.5273 125.316C99.2799 124.874 99.1302 124.34 99.0781 123.715C99.026 123.09 99 122.393 99 121.625C99 121.013 99.0195 120.401 99.0586 119.789C99.0977 119.164 99.1562 118.5 99.2344 117.797C99.0521 117.797 98.9089 117.803 98.8047 117.816C98.7005 117.816 98.6159 117.816 98.5508 117.816C98.1341 117.816 97.776 117.725 97.4766 117.543C97.1641 117.361 97.0078 117.081 97.0078 116.703C97.0078 116.469 97.099 116.26 97.2812 116.078C97.4505 115.896 97.6719 115.74 97.9453 115.609C98.2188 115.479 98.5117 115.375 98.8242 115.297C99.1497 115.219 99.4557 115.167 99.7422 115.141C99.7422 114.776 99.7682 114.372 99.8203 113.93C99.8724 113.487 99.9635 113.077 100.094 112.699C100.237 112.309 100.426 111.983 100.66 111.723C100.895 111.462 101.194 111.332 101.559 111.332C101.767 111.332 101.949 111.397 102.105 111.527C102.275 111.645 102.411 111.801 102.516 111.996C102.62 112.178 102.698 112.387 102.75 112.621C102.802 112.855 102.828 113.083 102.828 113.305C102.828 113.565 102.809 113.832 102.77 114.105C102.73 114.379 102.659 114.717 102.555 115.121C102.776 115.095 102.926 115.082 103.004 115.082C103.082 115.069 103.154 115.062 103.219 115.062C103.44 115.062 103.668 115.082 103.902 115.121C104.15 115.16 104.371 115.225 104.566 115.316C104.775 115.408 104.944 115.531 105.074 115.688C105.204 115.831 105.27 116.007 105.27 116.215C105.27 116.449 105.172 116.658 104.977 116.84C104.794 117.022 104.56 117.178 104.273 117.309C103.987 117.439 103.681 117.543 103.355 117.621C103.03 117.686 102.724 117.732 102.438 117.758C102.359 118.292 102.301 118.786 102.262 119.242C102.236 119.685 102.203 120.134 102.164 120.59C102.138 120.811 102.112 121.039 102.086 121.273C102.073 121.495 102.066 121.723 102.066 121.957C102.066 122.126 102.073 122.328 102.086 122.562C102.099 122.784 102.145 122.999 102.223 123.207C102.301 123.415 102.424 123.598 102.594 123.754C102.763 123.897 102.997 123.969 103.297 123.969C103.479 123.969 103.668 123.956 103.863 123.93C104.059 123.891 104.254 123.871 104.449 123.871C104.788 123.871 105.029 123.988 105.172 124.223C105.328 124.457 105.406 124.757 105.406 125.121C105.406 125.395 105.322 125.635 105.152 125.844C104.996 126.039 104.794 126.195 104.547 126.312C104.299 126.443 104.02 126.54 103.707 126.605C103.408 126.671 103.121 126.703 102.848 126.703ZM109.02 112.367C109.02 112.549 108.967 112.712 108.863 112.855C108.772 112.999 108.648 113.129 108.492 113.246C108.336 113.35 108.167 113.435 107.984 113.5C107.802 113.552 107.633 113.578 107.477 113.578C107.216 113.578 106.988 113.513 106.793 113.383C106.598 113.253 106.5 113.051 106.5 112.777C106.5 112.582 106.546 112.413 106.637 112.27C106.741 112.113 106.865 111.99 107.008 111.898C107.151 111.794 107.314 111.716 107.496 111.664C107.678 111.612 107.854 111.586 108.023 111.586C108.271 111.586 108.499 111.645 108.707 111.762C108.915 111.879 109.02 112.081 109.02 112.367ZM109.176 119.008C109.176 119.19 109.176 119.385 109.176 119.594C109.176 119.789 109.169 119.978 109.156 120.16C109.143 120.382 109.137 120.681 109.137 121.059C109.137 121.423 109.124 121.82 109.098 122.25C109.072 122.68 109.026 123.116 108.961 123.559C108.909 124.001 108.818 124.405 108.688 124.77C108.557 125.134 108.382 125.434 108.16 125.668C107.952 125.889 107.685 126.007 107.359 126.02C107.112 126.033 106.904 125.935 106.734 125.727C106.565 125.518 106.422 125.251 106.305 124.926C106.201 124.587 106.122 124.216 106.07 123.812C106.018 123.396 105.979 122.999 105.953 122.621C105.927 122.23 105.914 121.872 105.914 121.547C105.914 121.221 105.914 120.98 105.914 120.824C105.914 120.616 105.914 120.323 105.914 119.945C105.914 119.555 105.927 119.138 105.953 118.695C105.979 118.253 106.025 117.803 106.09 117.348C106.168 116.892 106.272 116.475 106.402 116.098C106.546 115.72 106.728 115.414 106.949 115.18C107.171 114.945 107.451 114.828 107.789 114.828C108.141 114.828 108.408 115.004 108.59 115.355C108.772 115.707 108.909 116.117 109 116.586C109.091 117.055 109.143 117.523 109.156 117.992C109.169 118.448 109.176 118.786 109.176 119.008ZM118.863 123.246C118.863 123.48 118.85 123.786 118.824 124.164C118.811 124.542 118.759 124.913 118.668 125.277C118.577 125.629 118.434 125.935 118.238 126.195C118.043 126.456 117.77 126.586 117.418 126.586C116.936 126.586 116.565 126.43 116.305 126.117C116.044 125.805 115.921 125.414 115.934 124.945C115.517 125.31 115.042 125.596 114.508 125.805C113.987 126.013 113.453 126.117 112.906 126.117C112.529 126.117 112.171 126.026 111.832 125.844C111.493 125.661 111.194 125.427 110.934 125.141C110.673 124.854 110.465 124.535 110.309 124.184C110.152 123.819 110.074 123.461 110.074 123.109C110.074 122.484 110.263 121.938 110.641 121.469C111.031 121 111.507 120.603 112.066 120.277C112.626 119.939 113.219 119.672 113.844 119.477C114.482 119.281 115.048 119.151 115.543 119.086C115.543 119.021 115.543 118.962 115.543 118.91C115.556 118.858 115.562 118.799 115.562 118.734C115.562 118.331 115.452 118.005 115.23 117.758C115.009 117.51 114.697 117.387 114.293 117.387C113.967 117.387 113.688 117.445 113.453 117.562C113.219 117.667 112.997 117.79 112.789 117.934C112.581 118.064 112.372 118.188 112.164 118.305C111.956 118.409 111.721 118.461 111.461 118.461C111.174 118.461 110.927 118.37 110.719 118.188C110.523 118.005 110.426 117.771 110.426 117.484C110.426 117.055 110.549 116.664 110.797 116.312C111.057 115.961 111.376 115.668 111.754 115.434C112.145 115.186 112.561 114.997 113.004 114.867C113.46 114.724 113.876 114.652 114.254 114.652C114.605 114.652 114.957 114.698 115.309 114.789C115.66 114.867 115.992 114.997 116.305 115.18C116.617 115.349 116.897 115.564 117.145 115.824C117.405 116.072 117.613 116.365 117.77 116.703C118.004 117.185 118.193 117.699 118.336 118.246C118.479 118.78 118.59 119.333 118.668 119.906C118.746 120.466 118.798 121.033 118.824 121.605C118.85 122.165 118.863 122.712 118.863 123.246ZM115.738 122.621L115.68 121.293C115.654 121.293 115.628 121.293 115.602 121.293C115.576 121.28 115.549 121.273 115.523 121.273C115.354 121.273 115.139 121.319 114.879 121.41C114.632 121.488 114.391 121.605 114.156 121.762C113.922 121.905 113.72 122.068 113.551 122.25C113.395 122.432 113.316 122.621 113.316 122.816C113.316 122.999 113.382 123.122 113.512 123.188C113.642 123.253 113.792 123.285 113.961 123.285C114.247 123.285 114.553 123.214 114.879 123.07C115.204 122.914 115.491 122.764 115.738 122.621Z" fill="#B17551"/>
<path d="M9 65H67.5L74 104L38.5 77L3 104L9 65Z" fill="url(#paint0_linear_44_124)"/>
<path d="M0.107004 47.5C0.107004 26.237 17.344 9 38.607 9C59.87 9 77.107 26.237 77.107 47.5C77.107 48.8831 77.0341 50.2492 76.8918 51.5946C76.3861 56.379 75.0039 60.902 72.909 65.0001C67.1831 78.8208 55.6498 97.8654 38.107 126C18.7004 94.1702 8.10826 75.3662 3.28806 62.8484C2.31092 60.603 1.54163 58.2463 1.0045 55.8025C0.416783 53.1286 0.107004 50.3505 0.107004 47.5Z" fill="#B17551"/>
<path d="M29.2777 53.3719L20.1636 40.0829L27.3016 38.2609L34.9434 49.5969C43.2934 44.6359 54.2996 40.5459 68.7366 38.8689C67.4428 34.3139 65.1376 30.1097 61.993 26.5695C58.8483 23.0294 54.9451 20.2445 50.5745 18.4226C46.2039 16.6006 41.4784 15.7885 36.7503 16.0469C32.0222 16.3052 27.4135 17.6272 23.2674 19.9145C19.1213 22.2017 15.5448 25.3952 12.8045 29.2569C10.0642 33.1186 8.2309 37.5489 7.44098 42.2177C6.65107 46.8865 6.92486 51.6734 8.24225 56.2216C9.55964 60.7698 11.8867 64.9621 15.0496 68.4859C18.846 62.6343 23.6657 57.5145 29.2777 53.3719ZM41.3074 27.0509C42.6898 27.0511 44.0411 27.4612 45.1905 28.2294C46.3398 28.9975 47.2358 30.0892 47.7647 31.3664C48.2936 32.6436 48.4319 34.049 48.1622 35.4048C47.8924 36.7607 47.2268 38.0061 46.2493 38.9836C45.2718 39.9611 44.0263 40.6268 42.6705 40.8966C41.3146 41.1663 39.9094 41.028 38.6321 40.499C37.3549 39.9701 36.2631 39.0743 35.4949 37.925C34.7268 36.7756 34.3167 35.4243 34.3165 34.0419C34.3162 33.1237 34.497 32.2145 34.8482 31.3661C35.1994 30.5177 35.7144 29.7469 36.3636 29.0976C37.0128 28.4483 37.7836 27.9332 38.6319 27.5819C39.4802 27.2306 40.3892 27.0498 41.3074 27.0499V27.0509Z" fill="url(#paint1_linear_44_124)"/>
<path d="M33.2004 59.1018C28.0443 62.9196 23.7534 67.7842 20.6094 73.3768C24.294 75.9168 28.4779 77.6423 32.8818 78.4383C37.2858 79.2342 41.8088 79.0824 46.1494 77.9928L33.2004 59.1018Z" fill="url(#paint2_linear_44_124)"/>
<path d="M38.8514 55.3849L52.5065 75.6339C57.7448 73.025 62.1517 69.0069 65.2318 64.031C68.312 59.0552 69.9433 53.3189 69.9425 47.4669C69.9425 46.8489 69.9206 46.2359 69.8856 45.6289C61.5406 46.7119 49.5464 49.2169 38.8514 55.3849Z" fill="url(#paint3_linear_44_124)"/>
<defs>
<linearGradient id="paint0_linear_44_124" x1="38.5" y1="65" x2="38.5" y2="104" gradientUnits="userSpaceOnUse">
<stop stop-color="#FF8135"/>
<stop offset="1" stop-color="#FFA36C"/>
</linearGradient>
<linearGradient id="paint1_linear_44_124" x1="37.8683" y1="16" x2="37.8683" y2="68.4859" gradientUnits="userSpaceOnUse">
<stop stop-color="#FFAD7D"/>
<stop offset="1" stop-color="#FF7D2F"/>
</linearGradient>
<linearGradient id="paint2_linear_44_124" x1="33.3794" y1="59.1018" x2="33.3794" y2="78.9403" gradientUnits="userSpaceOnUse">
<stop stop-color="#FFAD7D"/>
<stop offset="1" stop-color="#FF7D2F"/>
</linearGradient>
<linearGradient id="paint3_linear_44_124" x1="54.397" y1="45.6289" x2="54.397" y2="75.6339" gradientUnits="userSpaceOnUse">
<stop stop-color="#FFAD7D"/>
<stop offset="1" stop-color="#FF7D2F"/>
</linearGradient>
</defs>
</svg>
