<svg width="78" height="117" viewBox="0 0 78 117" fill="none" xmlns="http://www.w3.org/2000/svg">
<path d="M9 56H67.5L74 95L38.5 68L3 95L9 56Z" fill="url(#paint0_linear_43_100)"/>
<path d="M77.107 38.5C77.107 44.8016 75.593 50.7496 72.909 56.0001C66.5365 68.4659 53.5684 77 38.607 77C22.7996 77 9.21725 67.4734 3.28806 53.8484C1.24174 49.1461 0.107004 43.9556 0.107004 38.5C0.107004 17.237 17.344 0 38.607 0C59.87 0 77.107 17.237 77.107 38.5Z" fill="#B17551"/>
<path d="M72.909 56.0001C66.5365 68.4659 53.5684 77 38.607 77C22.7996 77 9.21725 67.4734 3.28806 53.8484C8.10826 66.3662 18.7004 85.1702 38.107 117C55.6498 88.8654 67.1831 69.8208 72.909 56.0001Z" fill="#B17551"/>
<path d="M29.2777 44.3719L20.1636 31.0829L27.3016 29.2609L34.9434 40.5969C43.2934 35.6359 54.2996 31.5459 68.7366 29.8689C67.4428 25.3139 65.1376 21.1097 61.993 17.5695C58.8483 14.0294 54.9451 11.2445 50.5745 9.42257C46.2039 7.60063 41.4784 6.78855 36.7503 7.04686C32.0222 7.30517 27.4135 8.62721 23.2674 10.9145C19.1213 13.2017 15.5448 16.3952 12.8045 20.2569C10.0642 24.1186 8.2309 28.5489 7.44098 33.2177C6.65107 37.8865 6.92486 42.6734 8.24225 47.2216C9.55964 51.7698 11.8867 55.9621 15.0496 59.4859C18.846 53.6343 23.6657 48.5145 29.2777 44.3719ZM41.3074 18.0509C42.6898 18.0511 44.0411 18.4612 45.1905 19.2294C46.3398 19.9975 47.2358 21.0892 47.7647 22.3664C48.2936 23.6436 48.4319 25.049 48.1622 26.4048C47.8924 27.7607 47.2268 29.0061 46.2493 29.9836C45.2718 30.9611 44.0263 31.6268 42.6705 31.8966C41.3146 32.1663 39.9094 32.028 38.6321 31.499C37.3549 30.9701 36.2631 30.0743 35.4949 28.925C34.7268 27.7756 34.3167 26.4243 34.3165 25.0419C34.3162 24.1237 34.497 23.2145 34.8482 22.3661C35.1994 21.5177 35.7144 20.7469 36.3636 20.0976C37.0128 19.4483 37.7836 18.9332 38.6319 18.5819C39.4802 18.2306 40.3892 18.0498 41.3074 18.0499V18.0509Z" fill="url(#paint1_linear_43_100)"/>
<path d="M33.2004 50.1018C28.0443 53.9196 23.7534 58.7842 20.6094 64.3768C24.294 66.9168 28.4779 68.6423 32.8818 69.4383C37.2858 70.2342 41.8088 70.0824 46.1494 68.9928L33.2004 50.1018Z" fill="url(#paint2_linear_43_100)"/>
<path d="M38.8514 46.3849L52.5065 66.6339C57.7448 64.025 62.1517 60.0069 65.2318 55.031C68.312 50.0552 69.9433 44.3189 69.9425 38.4669C69.9425 37.8489 69.9206 37.2359 69.8856 36.6289C61.5406 37.7119 49.5464 40.2169 38.8514 46.3849Z" fill="url(#paint3_linear_43_100)"/>
<defs>
<linearGradient id="paint0_linear_43_100" x1="38.5" y1="56" x2="38.5" y2="95" gradientUnits="userSpaceOnUse">
<stop stop-color="#FF8135"/>
<stop offset="1" stop-color="#FFA36C"/>
</linearGradient>
<linearGradient id="paint1_linear_43_100" x1="37.8683" y1="7" x2="37.8683" y2="59.4859" gradientUnits="userSpaceOnUse">
<stop stop-color="#FFAD7D"/>
<stop offset="1" stop-color="#FF7D2F"/>
</linearGradient>
<linearGradient id="paint2_linear_43_100" x1="33.3794" y1="50.1018" x2="33.3794" y2="69.9403" gradientUnits="userSpaceOnUse">
<stop stop-color="#FFAD7D"/>
<stop offset="1" stop-color="#FF7D2F"/>
</linearGradient>
<linearGradient id="paint3_linear_43_100" x1="54.397" y1="36.6289" x2="54.397" y2="66.6339" gradientUnits="userSpaceOnUse">
<stop stop-color="#FFAD7D"/>
<stop offset="1" stop-color="#FF7D2F"/>
</linearGradient>
</defs>
</svg>
