<svg width="78" height="117" viewBox="0 0 78 117" fill="none" xmlns="http://www.w3.org/2000/svg">
<path d="M9 56H67.5L74 95L38.5 68L3 95L9 56Z" fill="#FC6254"/>
<path d="M0.107004 38.5C0.107004 17.237 17.344 0 38.607 0C59.87 0 77.107 17.237 77.107 38.5C77.107 39.8831 77.0341 41.2492 76.8918 42.5946C76.3861 47.379 75.0039 51.902 72.909 56.0001C67.1831 69.8208 55.6498 88.8654 38.107 117C18.7004 85.1702 8.10826 66.3662 3.28806 53.8484C2.31092 51.603 1.54163 49.2463 1.0045 46.8025C0.416783 44.1286 0.107004 41.3505 0.107004 38.5Z" fill="#FD8C82"/>
<circle cx="38.5" cy="38.5" r="30.5" fill="#FC6254"/>
<path d="M15 49.3529V29.1176M62 29.1176L38.6013 15.0608C38.5388 15.0233 38.4609 15.0227 38.3978 15.0593L15.0996 28.5892C15.0379 28.625 15 28.6909 15 28.7622V29.1176M62 29.1176V48.4118M62 29.1176L38.5 42.7647M38.5 42.7647V63M38.5 42.7647L15 29.1176" stroke="white" stroke-width="3"/>
</svg>
